<svg width="991" height="91" viewBox="0 0 991 91" fill="none" xmlns="http://www.w3.org/2000/svg">
<path d="M0.386938 90.7078L-0.613008 90.7182L-0.602664 91.7078H0.386938V90.7078ZM0.00293756 53.9718V52.9718H-1.00757L-0.997008 53.9822L0.00293756 53.9718ZM9.34694 52.1798L8.82699 51.3256L8.81847 51.3307L8.81006 51.3361L9.34694 52.1798ZM13.6989 46.8038L14.6297 47.1694L13.6989 46.8038ZM15.7469 40.1478L16.7259 40.3517L15.7469 40.1478ZM16.8989 32.3398L17.8932 32.4472L17.894 32.4393L16.8989 32.3398ZM17.7949 3.92375V2.92375H16.7949V3.92375H17.7949ZM86.1469 3.92375H87.1469V2.92375H86.1469V3.92375ZM86.1469 53.9718H85.1469V54.9718H86.1469V53.9718ZM97.6669 53.9718L98.6624 54.0666L98.7667 52.9718H97.6669V53.9718ZM97.0269 66.8998L98.0267 66.9213L98.0268 66.9167L97.0269 66.8998ZM96.5149 90.7078V91.7078H97.4937L97.5147 90.7293L96.5149 90.7078ZM76.9309 90.7078H75.9309V91.7078H76.9309V90.7078ZM76.9309 72.2758H77.9309V71.2758H76.9309V72.2758ZM19.9709 72.2758V71.2758H18.9709V72.2758H19.9709ZM19.9709 90.7078V91.7078H20.9709V90.7078H19.9709ZM29.9549 53.9718L29.2233 53.29L27.6563 54.9718H29.9549V53.9718ZM63.1069 53.9718V54.9718H64.1069V53.9718H63.1069ZM63.1069 21.7158H64.1069V20.7158H63.1069V21.7158ZM37.3789 21.7158V20.7158H36.3789V21.7158H37.3789ZM37.1229 26.7078L38.1214 26.7632L38.1215 26.7617L37.1229 26.7078ZM36.6109 33.7478L35.6164 33.6431L35.6156 33.6517L36.6109 33.7478ZM1.38688 90.6973L1.00288 53.9613L-0.997008 53.9822L-0.613008 90.7182L1.38688 90.6973ZM0.00293756 54.9718H2.43494V52.9718H0.00293756V54.9718ZM2.43494 54.9718C5.31246 54.9718 7.81302 54.3412 9.88381 53.0234L8.81006 51.3361C7.12619 52.4076 5.01875 52.9718 2.43494 52.9718V54.9718ZM9.86689 53.034C12.038 51.7124 13.621 49.737 14.6297 47.1694L12.7682 46.4381C11.8995 48.6492 10.5812 50.2578 8.82699 51.3256L9.86689 53.034ZM14.6297 47.1694C15.5845 44.7389 16.2855 42.4656 16.7259 40.3517L14.768 39.9438C14.355 41.9259 13.6907 44.0899 12.7682 46.4381L14.6297 47.1694ZM16.7259 40.3517C17.1617 38.26 17.5499 35.6222 17.8931 32.4472L15.9047 32.2323C15.5653 35.3719 15.1855 37.9395 14.768 39.9438L16.7259 40.3517ZM17.894 32.4393C18.4966 26.413 18.7949 16.8987 18.7949 3.92375H16.7949C16.7949 16.8901 16.4959 26.3198 15.9039 32.2403L17.894 32.4393ZM17.7949 4.92375H86.1469V2.92375H17.7949V4.92375ZM85.1469 3.92375V53.9718H87.1469V3.92375H85.1469ZM86.1469 54.9718H97.6669V52.9718H86.1469V54.9718ZM96.6714 53.8769C96.3269 57.4947 96.1127 61.8315 96.0271 66.8828L98.0268 66.9167C98.1119 61.8987 98.3243 57.6168 98.6624 54.0666L96.6714 53.8769ZM96.0272 66.8783L95.5152 90.6863L97.5147 90.7293L98.0267 66.9213L96.0272 66.8783ZM96.5149 89.7078H76.9309V91.7078H96.5149V89.7078ZM77.9309 90.7078V72.2758H75.9309V90.7078H77.9309ZM76.9309 71.2758H19.9709V73.2758H76.9309V71.2758ZM18.9709 72.2758V90.7078H20.9709V72.2758H18.9709ZM19.9709 89.7078H0.386938V91.7078H19.9709V89.7078ZM29.9549 54.9718H63.1069V52.9718H29.9549V54.9718ZM64.1069 53.9718V21.7158H62.1069V53.9718H64.1069ZM63.1069 20.7158H37.3789V22.7158H63.1069V20.7158ZM36.3789 21.7158C36.3789 21.7139 36.3785 21.7384 36.3757 21.8106C36.3732 21.8751 36.3693 21.9637 36.364 22.0773C36.3535 22.3043 36.3376 22.6251 36.3163 23.0405C36.2737 23.8711 36.2097 25.0754 36.1244 26.6538L38.1215 26.7617C38.2906 23.6332 38.3789 21.9222 38.3789 21.7158H36.3789ZM36.1245 26.6523C35.9541 29.7195 35.7845 32.0466 35.6164 33.6431L37.6054 33.8524C37.7787 32.2062 37.9505 29.84 38.1214 26.7632L36.1245 26.6523ZM35.6156 33.6517C34.6816 43.3308 32.4869 49.7876 29.2233 53.29L30.6865 54.6535C34.4203 50.6465 36.6629 43.6207 37.6063 33.8438L35.6156 33.6517ZM182.256 66.1318L182.884 66.91L182.885 66.9092L182.256 66.1318ZM117.104 66.1318L116.471 66.9058L116.48 66.9135L117.104 66.1318ZM117.104 10.1958L117.732 10.974L117.733 10.9732L117.104 10.1958ZM182.256 10.1958L181.623 10.9698L181.632 10.9775L182.256 10.1958ZM133.616 52.3078L132.909 53.0149L132.919 53.0245L133.616 52.3078ZM165.872 52.3078L166.569 53.0246L166.579 53.0149L165.872 52.3078ZM165.872 24.0198L165.165 24.7269L165.175 24.7365L165.872 24.0198ZM133.616 24.0198L134.313 24.7365L134.323 24.7269L133.616 24.0198ZM181.628 65.3535C174.363 71.215 163.784 74.2198 149.744 74.2198V76.2198C164.034 76.2198 175.13 73.1659 182.884 66.91L181.628 65.3535ZM149.744 74.2198C135.705 74.2198 125.08 71.2154 117.728 65.35L116.48 66.9135C124.317 73.1655 135.452 76.2198 149.744 76.2198V74.2198ZM117.737 65.3578C110.525 59.4566 106.84 50.4387 106.84 38.0998H104.84C104.84 50.8489 108.665 60.5189 116.471 66.9057L117.737 65.3578ZM106.84 38.0998C106.84 25.7601 110.525 16.7888 117.732 10.974L116.476 9.41748C108.664 15.72 104.84 25.3514 104.84 38.0998H106.84ZM117.733 10.9732C125.085 5.0256 135.707 1.97975 149.744 1.97975V-0.0202484C135.45 -0.0202484 124.312 3.07791 116.475 9.41831L117.733 10.9732ZM149.744 1.97975C163.782 1.97975 174.358 5.02602 181.623 10.9697L182.889 9.4218C175.135 3.07749 164.037 -0.0202484 149.744 -0.0202484V1.97975ZM181.632 10.9775C188.923 16.7936 192.648 25.7639 192.648 38.0998H194.648C194.648 25.3476 190.778 15.7152 182.88 9.41403L181.632 10.9775ZM192.648 38.0998C192.648 50.4349 188.923 59.4518 181.627 65.3543L182.885 66.9092C190.778 60.5237 194.648 50.8526 194.648 38.0998H192.648ZM132.919 53.0245C136.359 56.3716 142.064 57.9158 149.744 57.9158V55.9158C142.235 55.9158 137.188 54.3879 134.313 51.591L132.919 53.0245ZM149.744 57.9158C157.424 57.9158 163.129 56.3716 166.569 53.0245L165.175 51.591C162.3 54.3879 157.253 55.9158 149.744 55.9158V57.9158ZM166.579 53.0149C169.99 49.6039 171.608 44.5686 171.608 38.0998H169.608C169.608 44.2603 168.068 48.697 165.165 51.6007L166.579 53.0149ZM171.608 38.0998C171.608 31.6333 169.991 26.6323 166.569 23.303L165.175 24.7365C168.068 27.5513 169.608 31.9368 169.608 38.0998H171.608ZM166.579 23.3126C163.139 19.8728 157.43 18.2838 149.744 18.2838V20.2838C157.248 20.2838 162.29 21.852 165.165 24.7269L166.579 23.3126ZM149.744 18.2838C142.058 18.2838 136.349 19.8728 132.909 23.3126L134.323 24.7269C137.198 21.852 142.24 20.2838 149.744 20.2838V18.2838ZM132.919 23.303C129.497 26.6323 127.88 31.6333 127.88 38.0998H129.88C129.88 31.9368 131.42 27.5513 134.313 24.7365L132.919 23.303ZM127.88 38.0998C127.88 44.5686 129.498 49.6039 132.909 53.0149L134.323 51.6007C131.419 48.697 129.88 44.2603 129.88 38.0998H127.88ZM215.979 66.1318L215.346 66.9058L215.355 66.9135L215.979 66.1318ZM215.979 9.81175L215.35 9.03429L215.346 9.0378L215.979 9.81175ZM278.443 7.50775L277.898 8.34598L277.902 8.34893L278.443 7.50775ZM292.011 29.2678V30.2678H293.218L292.993 29.0814L292.011 29.2678ZM268.331 29.2678L267.372 29.5518L267.584 30.2678H268.331V29.2678ZM232.235 23.6358L231.528 22.9286L231.518 22.9384L232.235 23.6358ZM232.235 52.3078L231.518 53.0051L231.528 53.0149L231.538 53.0245L232.235 52.3078ZM268.331 46.5478V45.5478H267.584L267.372 46.2637L268.331 46.5478ZM292.011 46.5478L292.994 46.7326L293.216 45.5478H292.011V46.5478ZM278.571 68.4358L279.109 69.2786L279.116 69.274L278.571 68.4358ZM248.491 74.2198C234.539 74.2198 223.956 71.2161 216.603 65.35L215.355 66.9135C223.191 73.1647 234.283 76.2198 248.491 76.2198V74.2198ZM216.612 65.3578C209.401 59.4579 205.715 50.3986 205.715 37.9718H203.715C203.715 50.8036 207.538 60.5177 215.346 66.9057L216.612 65.3578ZM205.715 37.9718C205.715 25.5449 209.401 16.4857 216.612 10.5857L215.346 9.0378C207.538 15.4258 203.715 25.1399 203.715 37.9718H205.715ZM216.608 10.5892C223.961 4.64086 234.541 1.59576 248.491 1.59576V-0.404243C234.28 -0.404243 223.187 2.69465 215.35 9.0343L216.608 10.5892ZM248.491 1.59576C261.277 1.59576 271.042 3.88539 277.898 8.34596L278.988 6.66954C271.679 1.91412 261.475 -0.404243 248.491 -0.404243V1.59576ZM277.902 8.34893C284.797 12.7815 289.192 19.7718 291.028 29.4541L292.993 29.0814C291.075 18.9664 286.425 11.45 278.984 6.66657L277.902 8.34893ZM292.011 28.2678H268.331V30.2678H292.011V28.2678ZM269.29 28.9837C268.186 25.2581 265.835 22.4539 262.298 20.6055C258.795 18.7748 254.168 17.8998 248.491 17.8998V19.8998C253.993 19.8998 258.262 20.7527 261.372 22.378C264.448 23.9856 266.428 26.3654 267.372 29.5518L269.29 28.9837ZM248.491 17.8998C240.724 17.8998 234.969 19.4872 231.528 22.9286L232.942 24.3429C235.815 21.4696 240.898 19.8998 248.491 19.8998V17.8998ZM231.518 22.9384C228.196 26.3524 226.627 31.4288 226.627 37.9718H228.627C228.627 31.7147 230.129 27.2337 232.952 24.3331L231.518 22.9384ZM226.627 37.9718C226.627 44.5147 228.196 49.5911 231.518 53.0051L232.952 51.6104C230.129 48.7098 228.627 44.2288 228.627 37.9718H226.627ZM231.538 53.0245C234.979 56.3731 240.729 57.9158 248.491 57.9158V55.9158C240.893 55.9158 235.805 54.3864 232.932 51.591L231.538 53.0245ZM248.491 57.9158C254.168 57.9158 258.795 57.0407 262.298 55.21C265.835 53.3616 268.186 50.5574 269.29 46.8318L267.372 46.2637C266.428 49.4501 264.448 51.8299 261.372 53.4375C258.262 55.0628 253.993 55.9158 248.491 55.9158V57.9158ZM268.331 47.5478H292.011V45.5478H268.331V47.5478ZM291.028 46.363C289.19 56.1371 284.834 63.1681 278.026 67.5975L279.116 69.274C286.473 64.4874 291.077 56.9265 292.994 46.7326L291.028 46.363ZM278.033 67.5929C271.176 71.9714 261.367 74.2198 248.491 74.2198V76.2198C261.557 76.2198 271.801 73.9455 279.109 69.2786L278.033 67.5929ZM299.652 22.8678H298.652V23.8678H299.652V22.8678ZM299.652 3.92375V2.92375H298.652V3.92375H299.652ZM375.3 3.92375H376.3V2.92375H375.3V3.92375ZM375.3 22.8678V23.8678H376.3V22.8678H375.3ZM349.06 22.8678V21.8678H348.06V22.8678H349.06ZM349.06 72.2758V73.2758H350.06V72.2758H349.06ZM325.892 72.2758H324.892V73.2758H325.892V72.2758ZM325.892 22.8678H326.892V21.8678H325.892V22.8678ZM300.652 22.8678V3.92375H298.652V22.8678H300.652ZM299.652 4.92375H375.3V2.92375H299.652V4.92375ZM374.3 3.92375V22.8678H376.3V3.92375H374.3ZM375.3 21.8678H349.06V23.8678H375.3V21.8678ZM348.06 22.8678V72.2758H350.06V22.8678H348.06ZM349.06 71.2758H325.892V73.2758H349.06V71.2758ZM326.892 72.2758V22.8678H324.892V72.2758H326.892ZM325.892 21.8678H299.652V23.8678H325.892V21.8678ZM388.201 72.2758H387.201V73.2758H388.201V72.2758ZM388.201 3.92375V2.92375H387.201V3.92375H388.201ZM410.729 3.92375H411.729V2.92375H410.729V3.92375ZM410.729 61.1398H409.729V62.1398H410.729V61.1398ZM412.777 61.1398V62.1398H413.489L413.722 61.4669L412.777 61.1398ZM433.385 3.92375V2.92375H432.71L432.458 3.54943L433.385 3.92375ZM471.401 3.92375H472.401V2.92375H471.401V3.92375ZM471.401 72.2758V73.2758H472.401V72.2758H471.401ZM448.873 72.2758H447.873V73.2758H448.873V72.2758ZM448.873 15.0598H449.873V14.0598H448.873V15.0598ZM446.825 15.0598V14.0598H446.115L445.881 14.7294L446.825 15.0598ZM426.217 72.2758V73.2758H426.899L427.148 72.6411L426.217 72.2758ZM389.201 72.2758V3.92375H387.201V72.2758H389.201ZM388.201 4.92375H410.729V2.92375H388.201V4.92375ZM409.729 3.92375V61.1398H411.729V3.92375H409.729ZM410.729 62.1398H412.777V60.1398H410.729V62.1398ZM413.722 61.4669C423.707 32.62 430.569 13.572 434.312 4.29807L432.458 3.54943C428.692 12.8781 421.814 31.9742 411.832 60.8126L413.722 61.4669ZM433.385 4.92375H471.401V2.92375H433.385V4.92375ZM470.401 3.92375V72.2758H472.401V3.92375H470.401ZM471.401 71.2758H448.873V73.2758H471.401V71.2758ZM449.873 72.2758V15.0598H447.873V72.2758H449.873ZM448.873 14.0598H446.825V16.0598H448.873V14.0598ZM445.881 14.7294C435.725 43.7463 428.862 62.8002 425.286 71.9104L427.148 72.6411C430.74 63.49 437.615 44.3999 447.769 15.3901L445.881 14.7294ZM426.217 71.2758H388.201V73.2758H426.217V71.2758ZM481.074 72.2758L480.332 71.6053L478.823 73.2758H481.074V72.2758ZM513.458 36.4358L514.2 37.1062L514.827 36.4121L514.176 35.7401L513.458 36.4358ZM481.97 3.92375V2.92375H479.609L481.252 4.61946L481.97 3.92375ZM507.826 3.92375L508.556 3.24005L508.259 2.92375H507.826V3.92375ZM532.53 30.2918L531.8 30.9755L532.096 31.2918H532.53V30.2918ZM533.938 30.2918V31.2918H534.938V30.2918H533.938ZM533.938 3.92375V2.92375H532.938V3.92375H533.938ZM556.466 3.92375H557.466V2.92375H556.466V3.92375ZM556.466 30.2918H555.466V31.2918H556.466V30.2918ZM557.874 30.2918V31.2918H558.307L558.604 30.9755L557.874 30.2918ZM582.578 3.92375V2.92375H582.145L581.848 3.24005L582.578 3.92375ZM608.434 3.92375L609.152 4.61946L610.795 2.92375H608.434V3.92375ZM576.946 36.4358L576.228 35.7401L575.577 36.4121L576.204 37.1062L576.946 36.4358ZM609.33 72.2758V73.2758H611.581L610.072 71.6053L609.33 72.2758ZM581.426 72.2758L580.669 72.9294L580.968 73.2758H581.426V72.2758ZM559.538 46.9318L560.295 46.2781L559.996 45.9318H559.538V46.9318ZM556.466 46.9318V45.9318H555.466V46.9318H556.466ZM556.466 72.2758V73.2758H557.466V72.2758H556.466ZM533.938 72.2758H532.938V73.2758H533.938V72.2758ZM533.938 46.9318H534.938V45.9318H533.938V46.9318ZM530.866 46.9318V45.9318H530.408L530.109 46.2781L530.866 46.9318ZM508.978 72.2758V73.2758H509.436L509.735 72.9294L508.978 72.2758ZM481.816 72.9462L514.2 37.1062L512.716 35.7653L480.332 71.6053L481.816 72.9462ZM514.176 35.7401L482.688 3.22805L481.252 4.61946L512.74 37.1315L514.176 35.7401ZM481.97 4.92375H507.826V2.92375H481.97V4.92375ZM507.096 4.60746L531.8 30.9755L533.26 29.6081L508.556 3.24005L507.096 4.60746ZM532.53 31.2918H533.938V29.2918H532.53V31.2918ZM534.938 30.2918V3.92375H532.938V30.2918H534.938ZM533.938 4.92375H556.466V2.92375H533.938V4.92375ZM555.466 3.92375V30.2918H557.466V3.92375H555.466ZM556.466 31.2918H557.874V29.2918H556.466V31.2918ZM558.604 30.9755L583.308 4.60746L581.848 3.24005L557.144 29.6081L558.604 30.9755ZM582.578 4.92375H608.434V2.92375H582.578V4.92375ZM607.716 3.22805L576.228 35.7401L577.664 37.1315L609.152 4.61946L607.716 3.22805ZM576.204 37.1062L608.588 72.9462L610.072 71.6053L577.688 35.7653L576.204 37.1062ZM609.33 71.2758H581.426V73.2758H609.33V71.2758ZM582.183 71.6221L560.295 46.2781L558.781 47.5854L580.669 72.9294L582.183 71.6221ZM559.538 45.9318H556.466V47.9318H559.538V45.9318ZM555.466 46.9318V72.2758H557.466V46.9318H555.466ZM556.466 71.2758H533.938V73.2758H556.466V71.2758ZM534.938 72.2758V46.9318H532.938V72.2758H534.938ZM533.938 45.9318H530.866V47.9318H533.938V45.9318ZM530.109 46.2781L508.221 71.6221L509.735 72.9294L531.623 47.5854L530.109 46.2781ZM508.978 71.2758H481.074V73.2758H508.978V71.2758ZM687.003 11.7318L686.3 12.4431L686.305 12.4474L687.003 11.7318ZM697.371 43.4758V44.4758H698.359L698.371 43.4877L697.371 43.4758ZM633.371 43.4758V42.4758H632.319L632.372 43.5265L633.371 43.4758ZM639.003 54.7398L638.425 55.5562L638.437 55.5641L638.448 55.5718L639.003 54.7398ZM673.691 52.4358V51.4358H673.061L672.789 52.0043L673.691 52.4358ZM696.475 52.4358L697.458 52.62L697.68 51.4358H696.475V52.4358ZM636.955 73.0438L637.197 72.0736L637.19 72.0717L637.182 72.0699L636.955 73.0438ZM623.131 67.1558L622.568 67.9824L622.576 67.9878L623.131 67.1558ZM613.915 55.7638L612.997 56.1596L612.999 56.1654L613.915 55.7638ZM621.851 10.7078L621.203 9.94603L621.851 10.7078ZM633.755 30.1638L632.764 30.0303L632.611 31.1638H633.755V30.1638ZM674.203 30.1638V31.1638H675.341L675.195 30.0348L674.203 30.1638ZM639.643 20.4358L639.128 19.5782L639.119 19.5841L639.643 20.4358ZM654.235 2.23576C668.86 2.23576 679.478 5.70353 686.3 12.4431L687.706 11.0204C680.362 3.76531 669.135 0.235756 654.235 0.235756V2.23576ZM686.305 12.4474C693.119 19.0973 696.54 29.3649 696.371 43.4638L698.371 43.4877C698.543 29.0853 695.053 18.1902 687.701 11.0161L686.305 12.4474ZM697.371 42.4758H633.371V44.4758H697.371V42.4758ZM632.372 43.5265C632.641 48.8069 634.631 52.8721 638.425 55.5562L639.58 53.9233C636.378 51.6581 634.613 48.2139 634.37 43.425L632.372 43.5265ZM638.448 55.5718C642.276 58.1235 647.974 59.3238 655.387 59.3238V57.3238C648.122 57.3238 642.898 56.1347 639.558 53.9077L638.448 55.5718ZM655.387 59.3238C660.598 59.3238 664.822 58.8303 668.013 57.8037C671.201 56.7782 673.489 55.1752 674.593 52.8672L672.789 52.0043C672.015 53.6217 670.314 54.9627 667.401 55.8998C664.491 56.8359 660.501 57.3238 655.387 57.3238V59.3238ZM673.691 53.4358H696.475V51.4358H673.691V53.4358ZM695.492 52.2515C694.28 58.7154 690.125 63.9531 682.812 67.9419L683.77 69.6977C691.476 65.4944 696.11 59.8095 697.458 52.62L695.492 52.2515ZM682.812 67.9419C675.494 71.9337 666.073 73.9638 654.491 73.9638V75.9638C666.29 75.9638 676.07 73.8978 683.77 69.6977L682.812 67.9419ZM654.491 73.9638C647.983 73.9638 642.222 73.3296 637.197 72.0736L636.712 74.0139C641.928 75.3179 647.858 75.9638 654.491 75.9638V73.9638ZM637.182 72.0699C632.171 70.9006 627.675 68.9835 623.686 66.3237L622.576 67.9878C626.779 70.7894 631.499 72.7975 636.728 74.0176L637.182 72.0699ZM623.694 66.3292C619.853 63.7141 616.896 60.071 614.831 55.3621L612.999 56.1654C615.201 61.1845 618.388 65.1361 622.568 67.9824L623.694 66.3292ZM614.833 55.3679C612.766 50.5722 611.715 44.8253 611.715 38.0998H609.715C609.715 45.0276 610.797 51.0567 612.997 56.1596L614.833 55.3679ZM611.715 38.0998C611.715 26.3741 615.348 17.5518 622.499 11.4695L621.203 9.94603C613.506 16.493 609.715 25.9321 609.715 38.0998H611.715ZM622.499 11.4695C629.675 5.36528 640.202 2.23576 654.235 2.23576V0.235756C639.937 0.235756 628.874 3.4209 621.203 9.94603L622.499 11.4695ZM633.755 31.1638H674.203V29.1638H633.755V31.1638ZM675.195 30.0348C674.606 25.5048 672.519 22.0298 668.919 19.7219C665.364 17.4434 660.432 16.3638 654.235 16.3638V18.3638C660.241 18.3638 664.738 19.4174 667.839 21.4056C670.895 23.3644 672.691 26.2894 673.211 30.2927L675.195 30.0348ZM654.235 16.3638C647.836 16.3638 642.763 17.3975 639.128 19.5783L640.157 21.2932C643.349 19.3781 648.005 18.3638 654.235 18.3638V16.3638ZM639.119 19.5841C635.496 21.8134 633.395 25.3443 632.764 30.0303L634.746 30.2972C635.31 26.1085 637.134 23.1541 640.167 21.2874L639.119 19.5841ZM767.875 3.92375V2.92375H766.875V3.92375H767.875ZM790.915 3.92375H791.915V2.92375H790.915V3.92375ZM790.915 72.2758V73.2758H791.915V72.2758H790.915ZM767.875 72.2758H766.875V73.2758H767.875V72.2758ZM767.875 47.4438H768.875V46.4438H767.875V47.4438ZM735.491 47.4438V46.4438H734.491V47.4438H735.491ZM735.491 72.2758V73.2758H736.491V72.2758H735.491ZM712.451 72.2758H711.451V73.2758H712.451V72.2758ZM712.451 3.92375V2.92375H711.451V3.92375H712.451ZM735.491 3.92375H736.491V2.92375H735.491V3.92375ZM735.491 28.4998H734.491V29.4998H735.491V28.4998ZM767.875 28.4998V29.4998H768.875V28.4998H767.875ZM767.875 4.92375H790.915V2.92375H767.875V4.92375ZM789.915 3.92375V72.2758H791.915V3.92375H789.915ZM790.915 71.2758H767.875V73.2758H790.915V71.2758ZM768.875 72.2758V47.4438H766.875V72.2758H768.875ZM767.875 46.4438H735.491V48.4438H767.875V46.4438ZM734.491 47.4438V72.2758H736.491V47.4438H734.491ZM735.491 71.2758H712.451V73.2758H735.491V71.2758ZM713.451 72.2758V3.92375H711.451V72.2758H713.451ZM712.451 4.92375H735.491V2.92375H712.451V4.92375ZM734.491 3.92375V28.4998H736.491V3.92375H734.491ZM735.491 29.4998H767.875V27.4998H735.491V29.4998ZM768.875 28.4998V3.92375H766.875V28.4998H768.875ZM811.451 72.2758H810.451V73.2758H811.451V72.2758ZM811.451 3.92375V2.92375H810.451V3.92375H811.451ZM833.979 3.92375H834.979V2.92375H833.979V3.92375ZM833.979 61.1398H832.979V62.1398H833.979V61.1398ZM836.027 61.1398V62.1398H836.739L836.972 61.4669L836.027 61.1398ZM856.635 3.92375V2.92375H855.96L855.708 3.54943L856.635 3.92375ZM894.651 3.92375H895.651V2.92375H894.651V3.92375ZM894.651 72.2758V73.2758H895.651V72.2758H894.651ZM872.123 72.2758H871.123V73.2758H872.123V72.2758ZM872.123 15.0598H873.123V14.0598H872.123V15.0598ZM870.075 15.0598V14.0598H869.365L869.131 14.7294L870.075 15.0598ZM849.467 72.2758V73.2758H850.149L850.398 72.6411L849.467 72.2758ZM812.451 72.2758V3.92375H810.451V72.2758H812.451ZM811.451 4.92375H833.979V2.92375H811.451V4.92375ZM832.979 3.92375V61.1398H834.979V3.92375H832.979ZM833.979 62.1398H836.027V60.1398H833.979V62.1398ZM836.972 61.4669C846.957 32.62 853.819 13.572 857.562 4.29807L855.708 3.54943C851.942 12.8781 845.065 31.9742 835.082 60.8126L836.972 61.4669ZM856.635 4.92375H894.651V2.92375H856.635V4.92375ZM893.651 3.92375V72.2758H895.651V3.92375H893.651ZM894.651 71.2758H872.123V73.2758H894.651V71.2758ZM873.123 72.2758V15.0598H871.123V72.2758H873.123ZM872.123 14.0598H870.075V16.0598H872.123V14.0598ZM869.131 14.7294C858.975 43.7463 852.112 62.8002 848.536 71.9104L850.398 72.6411C853.99 63.49 860.865 44.3999 871.019 15.3901L869.131 14.7294ZM849.467 71.2758H811.451V73.2758H849.467V71.2758ZM990.596 3.92375H991.596V2.92375H990.596V3.92375ZM990.596 72.2758V73.2758H991.596V72.2758H990.596ZM967.556 72.2758H966.556V73.2758H967.556V72.2758ZM967.556 54.4838H968.556V53.4838H967.556V54.4838ZM949.124 54.4838V53.4838H948.648L948.348 53.853L949.124 54.4838ZM934.66 72.2758V73.2758H935.136L935.436 72.9066L934.66 72.2758ZM909.828 72.2758L909.053 71.6439L907.722 73.2758H909.828V72.2758ZM926.212 52.1798L926.987 52.8116L927.89 51.7045L926.54 51.2353L926.212 52.1798ZM967.556 38.2278V39.2278H968.556V38.2278H967.556ZM967.556 20.6918H968.556V19.6918H967.556V20.6918ZM989.596 3.92375V72.2758H991.596V3.92375H989.596ZM990.596 71.2758H967.556V73.2758H990.596V71.2758ZM968.556 72.2758V54.4838H966.556V72.2758H968.556ZM967.556 53.4838H949.124V55.4838H967.556V53.4838ZM948.348 53.853L933.884 71.645L935.436 72.9066L949.9 55.1146L948.348 53.853ZM934.66 71.2758H909.828V73.2758H934.66V71.2758ZM910.603 72.9076L926.987 52.8116L925.437 51.5479L909.053 71.6439L910.603 72.9076ZM926.54 51.2353C921.811 49.5904 918.327 46.964 916.012 43.3811C913.69 39.7877 912.492 35.1486 912.492 29.3958H910.492C910.492 35.4189 911.747 40.4651 914.332 44.4664C916.924 48.4782 920.799 51.3558 925.883 53.1243L926.54 51.2353ZM912.492 29.3958C912.492 21.1109 914.961 15.063 919.749 11.0589C924.573 7.02613 931.916 4.92375 941.956 4.92375V2.92375C931.686 2.92375 923.798 5.06671 918.466 9.52459C913.101 14.0111 910.492 20.6993 910.492 29.3958H912.492ZM941.956 4.92375H990.596V2.92375H941.956V4.92375ZM943.62 39.2278H967.556V37.2278H943.62V39.2278ZM968.556 38.2278V20.6918H966.556V38.2278H968.556ZM967.556 19.6918H943.62V21.6918H967.556V19.6918ZM943.62 19.6918C940.249 19.6918 937.534 20.4434 935.657 22.1225C933.759 23.8206 932.892 26.3097 932.892 29.3958H934.892C934.892 26.6791 935.646 24.8163 936.991 23.613C938.357 22.3908 940.506 21.6918 943.62 21.6918V19.6918ZM932.892 29.3958C932.892 32.5201 933.757 35.0396 935.652 36.7601C937.528 38.464 940.246 39.2278 943.62 39.2278V37.2278C940.509 37.2278 938.362 36.5195 936.996 35.2794C935.648 34.0559 934.892 32.1594 934.892 29.3958H932.892Z" fill="white"/>
</svg>
