<svg width="533" height="533" viewBox="0 0 533 533" fill="none" xmlns="http://www.w3.org/2000/svg">
<path d="M241.174 378.657L473.09 146.741L479.454 153.105L247.538 385.021C211.017 421.542 160.349 435.294 113.173 426.277C168.556 474.983 253.005 472.893 305.892 420.005L379.074 346.823L385.438 353.187L312.256 426.369C255.814 482.811 165.583 484.87 106.676 432.546L106.488 432.733L100.124 426.369L148.93 377.563C96.6056 318.656 98.6643 228.425 155.106 171.983L216.842 110.247L223.206 116.611L161.47 178.347C108.544 231.273 106.489 315.807 155.306 371.187L346.11 180.383L352.474 186.747L120.783 418.438C163.41 424.726 208.365 411.466 241.174 378.657Z" fill="#EE215B"/>
<path d="M237.843 90.8472C240.073 90.2495 242.115 92.2908 241.517 94.5215L232.999 126.309C232.402 128.54 229.613 129.287 227.98 127.654L204.71 104.384C203.077 102.751 203.824 99.9624 206.055 99.3647L237.843 90.8472Z" fill="#D9D9D9"/>
<path d="M493.559 128.18C495.79 127.583 497.831 129.624 497.234 131.854L488.716 163.642C488.119 165.873 485.33 166.62 483.697 164.987L460.427 141.717C458.794 140.084 459.541 137.295 461.772 136.698L493.559 128.18Z" fill="#D9D9D9"/>
<circle cx="348.313" cy="182.793" r="20" fill="#D9D9D9"/>
<circle cx="388.313" cy="342.665" r="20" fill="#D9D9D9"/>
</svg>
