<svg width="662" height="190" viewBox="0 0 662 190" fill="none" xmlns="http://www.w3.org/2000/svg">
<path d="M7.45106 71.5291H6.45106V72.5291H7.45106V71.5291ZM7.45106 3.17712V2.17712H6.45106V3.17712H7.45106ZM68.6351 3.17712H69.6351V2.17712H68.6351V3.17712ZM68.6351 22.1211V23.1211H69.6351V22.1211H68.6351ZM30.4911 22.1211V21.1211H29.4911V22.1211H30.4911ZM30.4911 71.5291V72.5291H31.4911V71.5291H30.4911ZM8.45106 71.5291V3.17712H6.45106V71.5291H8.45106ZM7.45106 4.17712H68.6351V2.17712H7.45106V4.17712ZM67.6351 3.17712V22.1211H69.6351V3.17712H67.6351ZM68.6351 21.1211H30.4911V23.1211H68.6351V21.1211ZM29.4911 22.1211V71.5291H31.4911V22.1211H29.4911ZM30.4911 70.5291H7.45106V72.5291H30.4911V70.5291ZM82.3691 3.17712V2.17712H81.3691V3.17712H82.3691ZM151.873 3.17712H152.873V2.17712H151.873V3.17712ZM151.873 71.5291V72.5291H152.873V71.5291H151.873ZM128.833 71.5291H127.833V72.5291H128.833V71.5291ZM128.833 20.9691H129.833V19.9691H128.833V20.9691ZM102.081 20.9691V19.9691H101.081V20.9691H102.081ZM101.697 35.0491L102.696 35.1033L102.696 35.1008L101.697 35.0491ZM94.5291 64.2331L93.7322 63.629L94.5291 64.2331ZM67.0091 72.1691H66.0091V73.1691H67.0091V72.1691ZM67.0091 53.2251V52.2251H66.0091V53.2251H67.0091ZM79.0411 49.6411L78.1999 49.1004L78.1929 49.1112L78.1863 49.1222L79.0411 49.6411ZM81.9851 35.0491L82.9834 35.1072L82.9837 35.1008L81.9851 35.0491ZM82.3691 4.17712H151.873V2.17712H82.3691V4.17712ZM150.873 3.17712V71.5291H152.873V3.17712H150.873ZM151.873 70.5291H128.833V72.5291H151.873V70.5291ZM129.833 71.5291V20.9691H127.833V71.5291H129.833ZM128.833 19.9691H102.081V21.9691H128.833V19.9691ZM101.081 20.9691C101.081 25.3874 100.954 30.0634 100.698 34.9975L102.696 35.1008C102.953 30.1362 103.081 25.4255 103.081 20.9691H101.081ZM100.699 34.995C99.9315 49.1424 97.5461 58.5979 93.7322 63.629L95.326 64.8372C99.5334 59.287 101.927 49.2866 102.696 35.1033L100.699 34.995ZM93.7322 63.629C89.9896 68.566 83.4101 71.1691 73.6651 71.1691V73.1691C83.7173 73.1691 91.0472 70.4815 95.326 64.8372L93.7322 63.629ZM73.6651 71.1691H67.0091V73.1691H73.6651V71.1691ZM68.0091 72.1691V53.2251H66.0091V72.1691H68.0091ZM67.0091 54.2251H70.3371V52.2251H67.0091V54.2251ZM70.3371 54.2251C74.8321 54.2251 78.1777 52.9899 79.8959 50.1601L78.1863 49.1222C77.0031 51.071 74.546 52.2251 70.3371 52.2251V54.2251ZM79.8822 50.1819C80.75 48.8321 81.4096 46.8756 81.9093 44.3989C82.4125 41.9046 82.7685 38.8034 82.9834 35.1072L80.9867 34.9911C80.775 38.6335 80.4269 41.6337 79.9488 44.0034C79.4672 46.3906 78.8682 48.0608 78.1999 49.1004L79.8822 50.1819ZM82.9837 35.1008C83.2413 30.1208 83.3691 19.4697 83.3691 3.17712H81.3691C81.3691 19.4819 81.2408 30.0788 80.9864 34.9975L82.9837 35.1008ZM236.326 7.52913L235.73 8.33174L235.735 8.33553L236.326 7.52913ZM245.926 71.5291V72.5291H246.926V71.5291H245.926ZM226.982 71.5291L225.995 71.6878L226.13 72.5291H226.982V71.5291ZM225.83 64.3611L226.817 64.2025L226.484 62.1302L225.085 63.6943L225.83 64.3611ZM214.054 71.6571L213.743 70.7068L213.733 70.7101L213.723 70.7135L214.054 71.6571ZM176.55 68.4571L175.963 69.2664L175.969 69.2709L176.55 68.4571ZM170.534 41.3211L171.434 41.7567L171.44 41.7456L170.534 41.3211ZM175.526 34.9211L176.126 35.7211L176.131 35.7173L175.526 34.9211ZM183.334 31.0811L183.626 32.0375L183.638 32.0338L183.65 32.0298L183.334 31.0811ZM192.55 29.1611L192.633 30.1577L192.647 30.1565L192.66 30.155L192.55 29.1611ZM224.166 28.6491V29.6491H225.186L225.166 28.6295L224.166 28.6491ZM191.398 23.1451V24.1451H192.094L192.336 23.4924L191.398 23.1451ZM169.638 23.1451L168.679 22.8633L168.302 24.1451H169.638V23.1451ZM218.406 56.0411L218.921 56.8986L218.927 56.8945L218.934 56.8902L218.406 56.0411ZM224.166 41.5771H225.166V40.5771H224.166V41.5771ZM195.11 43.6251L195.569 44.5133L195.581 44.5072L195.593 44.5007L195.11 43.6251ZM208.294 1.48913C220.567 1.48913 229.661 3.82128 235.73 8.33172L236.923 6.72653C230.362 1.85031 220.768 -0.510872 208.294 -0.510872V1.48913ZM235.735 8.33553C241.774 12.7646 244.926 20.5355 244.926 31.9771H246.926C246.926 20.2081 243.678 11.6803 236.917 6.72272L235.735 8.33553ZM244.926 31.9771V71.5291H246.926V31.9771H244.926ZM245.926 70.5291H226.982V72.5291H245.926V70.5291ZM227.969 71.3705L226.817 64.2025L224.843 64.5198L225.995 71.6878L227.969 71.3705ZM225.085 63.6943C222.322 66.7824 218.558 69.1294 213.743 70.7068L214.365 72.6074C219.449 70.9422 223.536 68.4252 226.575 65.0279L225.085 63.6943ZM213.723 70.7135C208.97 72.3813 203.962 73.2171 198.694 73.2171V75.2171C204.178 75.2171 209.41 74.3463 214.385 72.6007L213.723 70.7135ZM198.694 73.2171C189.431 73.2171 182.28 71.3209 177.131 67.6434L175.969 69.2709C181.572 73.2733 189.184 75.2171 198.694 75.2171V73.2171ZM177.137 67.6478C172.166 64.0393 169.614 58.4478 169.614 50.6651H167.614C167.614 58.9251 170.353 65.195 175.963 69.2664L177.137 67.6478ZM169.614 50.6651C169.614 47.1994 170.233 44.2397 171.434 41.7567L169.634 40.8856C168.275 43.6932 167.614 46.9628 167.614 50.6651H169.614ZM171.44 41.7456C172.662 39.1368 174.231 37.1427 176.126 35.7211L174.926 34.1211C172.726 35.7715 170.966 38.0441 169.629 40.8967L171.44 41.7456ZM176.131 35.7173C178.154 34.18 180.645 32.9483 183.626 32.0375L183.042 30.1248C179.879 31.0913 177.165 32.4196 174.921 34.125L176.131 35.7173ZM183.65 32.0298C186.651 31.0297 189.644 30.4067 192.633 30.1577L192.467 28.1646C189.312 28.4275 186.162 29.0845 183.018 30.1324L183.65 32.0298ZM192.66 30.155C195.688 29.8186 199.107 29.6491 202.918 29.6491V27.6491C199.05 27.6491 195.556 27.821 192.44 28.1672L192.66 30.155ZM202.918 29.6491H224.166V27.6491H202.918V29.6491ZM225.166 28.6295C225.077 24.0869 223.685 20.5907 220.806 18.3835L219.59 19.9707C221.831 21.6888 223.085 24.5074 223.166 28.6687L225.166 28.6295ZM220.806 18.3835C217.987 16.2221 213.709 15.2331 208.166 15.2331V17.2331C213.546 17.2331 217.289 18.2068 219.59 19.9707L220.806 18.3835ZM208.166 15.2331C203.365 15.2331 199.453 15.8146 196.489 17.0366C193.5 18.2686 191.432 20.1737 190.46 22.7978L192.336 23.4924C193.071 21.5085 194.651 19.9577 197.251 18.8857C199.876 17.8036 203.495 17.2331 208.166 17.2331V15.2331ZM191.398 22.1451H169.638V24.1451H191.398V22.1451ZM170.598 23.427C172.749 16.1048 176.925 10.6556 183.136 7.01587C189.373 3.36022 197.733 1.48913 208.294 1.48913V-0.510872C197.522 -0.510872 188.772 1.39404 182.124 5.29039C175.449 9.20262 170.965 15.0814 168.679 22.8633L170.598 23.427ZM204.454 60.4971C210.057 60.4971 214.894 59.3144 218.921 56.8986L217.892 55.1836C214.238 57.3759 209.774 58.4971 204.454 58.4971V60.4971ZM218.934 56.8902C223.122 54.2847 225.166 50.0885 225.166 44.5211H223.166C223.166 49.5351 221.37 53.0189 217.878 55.1921L218.934 56.8902ZM225.166 44.5211V41.5771H223.166V44.5211H225.166ZM224.166 40.5771H207.782V42.5771H224.166V40.5771ZM207.782 40.5771C201.789 40.5771 197.34 41.2525 194.627 42.7495L195.593 44.5007C197.829 43.2671 201.829 42.5771 207.782 42.5771V40.5771ZM194.651 42.7369C193.251 43.4606 192.171 44.4816 191.449 45.8011C190.731 47.1122 190.398 48.6625 190.398 50.4091H192.398C192.398 48.9131 192.683 47.7114 193.203 46.7611C193.719 45.8193 194.494 45.0696 195.569 44.5133L194.651 42.7369ZM190.398 50.4091C190.398 53.7117 191.605 56.3154 194.091 58.0459C196.511 59.7305 200.017 60.4971 204.454 60.4971V58.4971C200.187 58.4971 197.165 57.749 195.233 56.4044C193.367 55.1055 192.398 53.1652 192.398 50.4091H190.398ZM329.683 35.4331H328.683V36.2286L329.458 36.4075L329.683 35.4331ZM338.131 41.0651L337.339 41.676L337.348 41.687L338.131 41.0651ZM335.059 66.6651L335.657 67.467L335.059 66.6651ZM266.451 71.5291H265.451V72.5291H266.451V71.5291ZM266.451 3.17712V2.17712H265.451V3.17712H266.451ZM333.395 7.27312L332.856 8.11543L332.864 8.12019L333.395 7.27312ZM329.683 34.7931L329.292 33.8728L328.683 34.1316V34.7931H329.683ZM289.491 17.5131V16.5131H288.491V17.5131H289.491ZM289.491 29.8011H288.491V30.8011H289.491V29.8011ZM315.987 54.7611L316.668 55.4939L316.681 55.4813L316.694 55.4682L315.987 54.7611ZM289.491 43.6251V42.6251H288.491V43.6251H289.491ZM289.491 56.4251H288.491V57.4251H289.491V56.4251ZM329.458 36.4075C332.537 37.118 335.161 38.852 337.339 41.6759L338.923 40.4543C336.493 37.3049 333.485 35.2842 329.908 34.4587L329.458 36.4075ZM337.348 41.687C339.506 44.4046 340.587 47.5541 340.587 51.1771H342.587C342.587 47.1202 341.364 43.5283 338.914 40.4432L337.348 41.687ZM340.587 51.1771C340.587 58.0493 338.486 62.8645 334.462 65.8632L335.657 67.467C340.336 63.9804 342.587 58.4702 342.587 51.1771H340.587ZM334.462 65.8632C330.364 68.9166 323.924 70.5291 314.963 70.5291V72.5291C324.093 72.5291 331.05 70.899 335.657 67.467L334.462 65.8632ZM314.963 70.5291H266.451V72.5291H314.963V70.5291ZM267.451 71.5291V3.17712H265.451V71.5291H267.451ZM266.451 4.17712H314.451V2.17712H266.451V4.17712ZM314.451 4.17712C322.734 4.17712 328.824 5.53481 332.856 8.1154L333.934 6.43085C329.433 3.55011 322.893 2.17712 314.451 2.17712V4.17712ZM332.864 8.12019C336.859 10.627 338.923 14.7433 338.923 20.7131H340.923C340.923 14.2243 338.635 9.38054 333.927 6.42606L332.864 8.12019ZM338.923 20.7131C338.923 23.7705 338.122 26.3531 336.554 28.509C334.98 30.6736 332.584 32.4736 329.292 33.8728L330.074 35.7135C333.609 34.2113 336.333 32.214 338.172 29.6853C340.017 27.1478 340.923 24.1411 340.923 20.7131H338.923ZM328.683 34.7931V35.4331H330.683V34.7931H328.683ZM310.099 16.5131H289.491V18.5131H310.099V16.5131ZM288.491 17.5131V29.8011H290.491V17.5131H288.491ZM289.491 30.8011H310.099V28.8011H289.491V30.8011ZM310.099 30.8011C312.448 30.8011 314.397 30.2725 315.762 29.039C317.146 27.7882 317.755 25.9722 317.755 23.7851H315.755C315.755 25.6088 315.255 26.8007 314.421 27.5553C313.567 28.3271 312.187 28.8011 310.099 28.8011V30.8011ZM317.755 23.7851C317.755 21.5246 317.152 19.6496 315.777 18.3533C314.412 17.0676 312.458 16.5131 310.099 16.5131V18.5131C312.178 18.5131 313.551 19.004 314.405 19.8089C315.248 20.6033 315.755 21.8643 315.755 23.7851H317.755ZM310.611 57.4251C313.137 57.4251 315.218 56.8403 316.668 55.4939L315.307 54.0283C314.367 54.9006 312.864 55.4251 310.611 55.4251V57.4251ZM316.694 55.4682C318.098 54.0644 318.779 52.2634 318.779 50.1531H316.779C316.779 51.7975 316.265 53.0686 315.28 54.054L316.694 55.4682ZM318.779 50.1531C318.779 47.8028 318.142 45.8618 316.699 44.5239C315.27 43.1991 313.222 42.6251 310.739 42.6251V44.6251C312.95 44.6251 314.421 45.1391 315.339 45.9904C316.243 46.8285 316.779 48.1515 316.779 50.1531H318.779ZM310.739 42.6251H289.491V44.6251H310.739V42.6251ZM288.491 43.6251V56.4251H290.491V43.6251H288.491ZM289.491 57.4251H310.611V55.4251H289.491V57.4251ZM412.125 3.17712V2.17712H411.125V3.17712H412.125ZM435.165 3.17712H436.165V2.17712H435.165V3.17712ZM435.165 71.5291V72.5291H436.165V71.5291H435.165ZM412.125 71.5291H411.125V72.5291H412.125V71.5291ZM412.125 46.6971H413.125V45.6971H412.125V46.6971ZM379.741 46.6971V45.6971H378.741V46.6971H379.741ZM379.741 71.5291V72.5291H380.741V71.5291H379.741ZM356.701 71.5291H355.701V72.5291H356.701V71.5291ZM356.701 3.17712V2.17712H355.701V3.17712H356.701ZM379.741 3.17712H380.741V2.17712H379.741V3.17712ZM379.741 27.7531H378.741V28.7531H379.741V27.7531ZM412.125 27.7531V28.7531H413.125V27.7531H412.125ZM412.125 4.17712H435.165V2.17712H412.125V4.17712ZM434.165 3.17712V71.5291H436.165V3.17712H434.165ZM435.165 70.5291H412.125V72.5291H435.165V70.5291ZM413.125 71.5291V46.6971H411.125V71.5291H413.125ZM412.125 45.6971H379.741V47.6971H412.125V45.6971ZM378.741 46.6971V71.5291H380.741V46.6971H378.741ZM379.741 70.5291H356.701V72.5291H379.741V70.5291ZM357.701 71.5291V3.17712H355.701V71.5291H357.701ZM356.701 4.17712H379.741V2.17712H356.701V4.17712ZM378.741 3.17712V27.7531H380.741V3.17712H378.741ZM379.741 28.7531H412.125V26.7531H379.741V28.7531ZM413.125 27.7531V3.17712H411.125V27.7531H413.125ZM519.701 7.52913L519.105 8.33174L519.11 8.33553L519.701 7.52913ZM529.301 71.5291V72.5291H530.301V71.5291H529.301ZM510.357 71.5291L509.37 71.6878L509.505 72.5291H510.357V71.5291ZM509.205 64.3611L510.192 64.2025L509.859 62.1302L508.46 63.6943L509.205 64.3611ZM497.429 71.6571L497.118 70.7068L497.108 70.7101L497.098 70.7135L497.429 71.6571ZM459.925 68.4571L459.338 69.2664L459.344 69.2709L459.925 68.4571ZM453.909 41.3211L454.809 41.7567L454.815 41.7456L453.909 41.3211ZM458.901 34.9211L459.501 35.7211L459.506 35.7173L458.901 34.9211ZM466.709 31.0811L467.001 32.0375L467.013 32.0338L467.025 32.0298L466.709 31.0811ZM475.925 29.1611L476.008 30.1577L476.022 30.1565L476.035 30.155L475.925 29.1611ZM507.541 28.6491V29.6491H508.561L508.541 28.6295L507.541 28.6491ZM474.773 23.1451V24.1451H475.469L475.711 23.4924L474.773 23.1451ZM453.013 23.1451L452.054 22.8633L451.677 24.1451H453.013V23.1451ZM501.781 56.0411L502.296 56.8986L502.302 56.8945L502.309 56.8902L501.781 56.0411ZM507.541 41.5771H508.541V40.5771H507.541V41.5771ZM478.485 43.6251L478.944 44.5133L478.956 44.5072L478.968 44.5007L478.485 43.6251ZM491.669 1.48913C503.942 1.48913 513.036 3.82128 519.105 8.33172L520.298 6.72653C513.737 1.85031 504.143 -0.510872 491.669 -0.510872V1.48913ZM519.11 8.33553C525.149 12.7646 528.301 20.5355 528.301 31.9771H530.301C530.301 20.2081 527.053 11.6803 520.292 6.72272L519.11 8.33553ZM528.301 31.9771V71.5291H530.301V31.9771H528.301ZM529.301 70.5291H510.357V72.5291H529.301V70.5291ZM511.344 71.3705L510.192 64.2025L508.218 64.5198L509.37 71.6878L511.344 71.3705ZM508.46 63.6943C505.697 66.7824 501.933 69.1294 497.118 70.7068L497.74 72.6074C502.824 70.9422 506.911 68.4252 509.95 65.0279L508.46 63.6943ZM497.098 70.7135C492.345 72.3813 487.337 73.2171 482.069 73.2171V75.2171C487.553 75.2171 492.785 74.3463 497.76 72.6007L497.098 70.7135ZM482.069 73.2171C472.806 73.2171 465.655 71.3209 460.506 67.6434L459.344 69.2709C464.947 73.2733 472.559 75.2171 482.069 75.2171V73.2171ZM460.512 67.6478C455.541 64.0393 452.989 58.4478 452.989 50.6651H450.989C450.989 58.9251 453.728 65.195 459.338 69.2664L460.512 67.6478ZM452.989 50.6651C452.989 47.1994 453.608 44.2397 454.809 41.7567L453.009 40.8856C451.65 43.6932 450.989 46.9628 450.989 50.6651H452.989ZM454.815 41.7456C456.037 39.1368 457.606 37.1427 459.501 35.7211L458.301 34.1211C456.101 35.7715 454.341 38.0441 453.004 40.8967L454.815 41.7456ZM459.506 35.7173C461.529 34.18 464.02 32.9483 467.001 32.0375L466.417 30.1248C463.254 31.0913 460.54 32.4196 458.296 34.125L459.506 35.7173ZM467.025 32.0298C470.026 31.0297 473.019 30.4067 476.008 30.1577L475.842 28.1646C472.687 28.4275 469.537 29.0845 466.393 30.1324L467.025 32.0298ZM476.035 30.155C479.063 29.8186 482.482 29.6491 486.293 29.6491V27.6491C482.425 27.6491 478.931 27.821 475.815 28.1672L476.035 30.155ZM486.293 29.6491H507.541V27.6491H486.293V29.6491ZM508.541 28.6295C508.452 24.0869 507.06 20.5907 504.181 18.3835L502.965 19.9707C505.206 21.6888 506.46 24.5074 506.541 28.6687L508.541 28.6295ZM504.181 18.3835C501.362 16.2221 497.084 15.2331 491.541 15.2331V17.2331C496.921 17.2331 500.664 18.2068 502.965 19.9707L504.181 18.3835ZM491.541 15.2331C486.74 15.2331 482.828 15.8146 479.864 17.0366C476.875 18.2686 474.807 20.1737 473.835 22.7978L475.711 23.4924C476.446 21.5085 478.026 19.9577 480.626 18.8857C483.251 17.8036 486.87 17.2331 491.541 17.2331V15.2331ZM474.773 22.1451H453.013V24.1451H474.773V22.1451ZM453.973 23.427C456.124 16.1048 460.3 10.6556 466.511 7.01587C472.748 3.36022 481.108 1.48913 491.669 1.48913V-0.510872C480.897 -0.510872 472.147 1.39404 465.499 5.29039C458.824 9.20262 454.34 15.0814 452.054 22.8633L453.973 23.427ZM487.829 60.4971C493.432 60.4971 498.269 59.3144 502.296 56.8986L501.267 55.1836C497.613 57.3759 493.149 58.4971 487.829 58.4971V60.4971ZM502.309 56.8902C506.497 54.2847 508.541 50.0885 508.541 44.5211H506.541C506.541 49.5351 504.745 53.0189 501.253 55.1921L502.309 56.8902ZM508.541 44.5211V41.5771H506.541V44.5211H508.541ZM507.541 40.5771H491.157V42.5771H507.541V40.5771ZM491.157 40.5771C485.164 40.5771 480.715 41.2525 478.002 42.7495L478.968 44.5007C481.204 43.2671 485.204 42.5771 491.157 42.5771V40.5771ZM478.026 42.7369C476.626 43.4606 475.546 44.4816 474.824 45.8011C474.106 47.1122 473.773 48.6625 473.773 50.4091H475.773C475.773 48.9131 476.058 47.7114 476.578 46.7611C477.094 45.8193 477.869 45.0696 478.944 44.5133L478.026 42.7369ZM473.773 50.4091C473.773 53.7117 474.98 56.3154 477.466 58.0459C479.886 59.7305 483.392 60.4971 487.829 60.4971V58.4971C483.562 58.4971 480.54 57.749 478.608 56.4044C476.742 55.1055 475.773 53.1652 475.773 50.4091H473.773ZM625.346 3.17712H626.346V2.17712H625.346V3.17712ZM625.346 71.5291V72.5291H626.346V71.5291H625.346ZM602.306 71.5291H601.306V72.5291H602.306V71.5291ZM602.306 53.7371H603.306V52.7371H602.306V53.7371ZM583.874 53.7371V52.7371H583.398L583.098 53.1063L583.874 53.7371ZM569.41 71.5291V72.5291H569.886L570.186 72.1599L569.41 71.5291ZM544.578 71.5291L543.803 70.8972L542.473 72.5291H544.578V71.5291ZM560.962 51.4331L561.737 52.065L562.64 50.9579L561.291 50.4886L560.962 51.4331ZM602.306 37.4811V38.4811H603.306V37.4811H602.306ZM602.306 19.9451H603.306V18.9451H602.306V19.9451ZM624.346 3.17712V71.5291H626.346V3.17712H624.346ZM625.346 70.5291H602.306V72.5291H625.346V70.5291ZM603.306 71.5291V53.7371H601.306V71.5291H603.306ZM602.306 52.7371H583.874V54.7371H602.306V52.7371ZM583.098 53.1063L568.634 70.8983L570.186 72.1599L584.65 54.3679L583.098 53.1063ZM569.41 70.5291H544.578V72.5291H569.41V70.5291ZM545.353 72.161L561.737 52.065L560.187 50.8012L543.803 70.8972L545.353 72.161ZM561.291 50.4886C556.562 48.8437 553.077 46.2173 550.762 42.6345C548.44 39.0411 547.242 34.4019 547.242 28.6491H545.242C545.242 34.6723 546.497 39.7185 549.082 43.7198C551.674 47.7316 555.549 50.6092 560.634 52.3776L561.291 50.4886ZM547.242 28.6491C547.242 20.3643 549.711 14.3164 554.5 10.3123C559.323 6.2795 566.666 4.17712 576.706 4.17712V2.17712C566.437 2.17712 558.548 4.32008 553.217 8.77796C547.851 13.2645 545.242 19.9526 545.242 28.6491H547.242ZM576.706 4.17712H625.346V2.17712H576.706V4.17712ZM578.37 38.4811H602.306V36.4811H578.37V38.4811ZM603.306 37.4811V19.9451H601.306V37.4811H603.306ZM602.306 18.9451H578.37V20.9451H602.306V18.9451ZM578.37 18.9451C574.999 18.9451 572.284 19.6968 570.407 21.3759C568.509 23.0739 567.642 25.5631 567.642 28.6491H569.642C569.642 25.9325 570.396 24.0696 571.741 22.8664C573.107 21.6441 575.256 20.9451 578.37 20.9451V18.9451ZM567.642 28.6491C567.642 31.7735 568.507 34.293 570.402 36.0135C572.279 37.7174 574.996 38.4811 578.37 38.4811V36.4811C575.259 36.4811 573.112 35.7729 571.746 34.5327C570.399 33.3092 569.642 31.4127 569.642 28.6491H567.642ZM0.0270598 150.665V149.665H-1.2371L-0.946082 150.895L0.0270598 150.665ZM23.4511 150.665L24.3963 150.339L24.1636 149.665H23.4511V150.665ZM29.4671 143.753H28.4671V144.753H29.4671V143.753ZM29.4671 129.929V128.929H28.4671V129.929H29.4671ZM24.9871 122.889V123.889H25.5512L25.843 123.406L24.9871 122.889ZM2.84306 122.889L1.86162 122.697L1.62875 123.889H2.84306V122.889ZM66.3311 134.793L65.9697 133.861L65.3311 134.108V134.793H66.3311ZM66.3311 135.689H65.3311V136.417L66.0241 136.641L66.3311 135.689ZM69.4031 168.713L69.9494 169.551L69.9578 169.545L69.4031 168.713ZM41.3711 173.473C29.5616 173.473 20.3597 171.502 13.6781 167.655C7.0333 163.828 2.81587 158.11 1.0002 150.435L-0.946082 150.895C0.992915 159.092 5.54349 165.278 12.68 169.388C19.7797 173.476 29.3725 175.473 41.3711 175.473V173.473ZM0.0270598 151.665H23.4511V149.665H0.0270598V151.665ZM22.5059 150.992C23.4384 153.691 25.6078 155.629 28.7814 156.876C31.9338 158.114 36.1502 158.705 41.3711 158.705V156.705C36.2666 156.705 32.3336 156.123 29.5127 155.014C26.713 153.914 25.0851 152.333 24.3963 150.339L22.5059 150.992ZM41.3711 158.705C45.7867 158.705 49.2614 158.072 51.6638 156.683C54.1493 155.245 55.4271 153.027 55.4271 150.153H53.4271C53.4271 152.314 52.5288 153.872 50.6624 154.952C48.7127 156.079 45.6594 156.705 41.3711 156.705V158.705ZM55.4271 150.153C55.4271 147.78 54.6293 145.852 52.9189 144.556C51.2609 143.3 48.8928 142.753 45.9791 142.753V144.753C48.6973 144.753 50.5532 145.273 51.7112 146.15C52.8168 146.988 53.4271 148.26 53.4271 150.153H55.4271ZM45.9791 142.753H29.4671V144.753H45.9791V142.753ZM30.4671 143.753V129.929H28.4671V143.753H30.4671ZM29.4671 130.929H45.7231V128.929H29.4671V130.929ZM45.7231 130.929C48.3827 130.929 50.5609 130.424 52.0915 129.251C53.6724 128.039 54.4031 126.24 54.4031 124.041H52.4031C52.4031 125.768 51.8537 126.913 50.8746 127.664C49.8453 128.453 48.1834 128.929 45.7231 128.929V130.929ZM54.4031 124.041C54.4031 121.27 53.216 119.115 50.8776 117.712C48.6205 116.357 45.3638 115.745 41.2431 115.745V117.745C45.229 117.745 48.0523 118.349 49.8486 119.427C51.5635 120.456 52.4031 121.948 52.4031 124.041H54.4031ZM41.2431 115.745C32.7939 115.745 26.8908 117.804 24.1311 122.372L25.843 123.406C28.0327 119.782 32.9669 117.745 41.2431 117.745V115.745ZM24.9871 121.889H2.84306V123.889H24.9871V121.889ZM3.8245 123.081C5.22127 115.933 8.97664 110.614 15.1208 107.05C21.3079 103.462 29.9836 101.617 41.2431 101.617V99.6171C29.8039 99.6171 20.7303 101.485 14.1173 105.32C7.46148 109.18 3.36619 114.998 1.86162 122.697L3.8245 123.081ZM41.2431 101.617C52.9576 101.617 61.5828 103.278 67.247 106.48C72.8274 109.634 75.5711 114.297 75.5711 120.585H77.5711C77.5711 113.561 74.4267 108.24 68.2311 104.739C62.1193 101.284 53.0805 99.6171 41.2431 99.6171V101.617ZM75.5711 120.585C75.5711 123.825 74.7639 126.502 73.1998 128.672C71.6319 130.848 69.2484 132.59 65.9697 133.861L66.6924 135.726C70.2404 134.351 72.9768 132.402 74.8223 129.842C76.6715 127.276 77.5711 124.172 77.5711 120.585H75.5711ZM65.3311 134.793V135.689H67.3311V134.793H65.3311ZM66.0241 136.641C69.849 137.875 72.6308 139.727 74.4614 142.148C76.2888 144.565 77.2351 147.637 77.2351 151.433H79.2351C79.2351 147.294 78.1974 143.773 76.0567 140.942C73.9193 138.115 70.7491 136.064 66.6381 134.737L66.0241 136.641ZM77.2351 151.433C77.2351 158.723 74.4348 164.157 68.8484 167.881L69.9578 169.545C76.1473 165.419 79.2351 159.333 79.2351 151.433H77.2351ZM68.8568 167.876C63.2171 171.554 54.1144 173.473 41.3711 173.473V175.473C54.2278 175.473 63.813 173.553 69.9493 169.551L68.8568 167.876ZM157.326 107.529L156.73 108.332L156.735 108.336L157.326 107.529ZM166.926 171.529V172.529H167.926V171.529H166.926ZM147.982 171.529L146.995 171.688L147.13 172.529H147.982V171.529ZM146.83 164.361L147.817 164.202L147.484 162.13L146.085 163.694L146.83 164.361ZM135.054 171.657L134.743 170.707L134.733 170.71L134.723 170.714L135.054 171.657ZM97.5501 168.457L96.9626 169.266L96.9688 169.271L97.5501 168.457ZM91.5341 141.321L92.4343 141.757L92.4395 141.746L91.5341 141.321ZM96.5261 134.921L97.1261 135.721L97.1311 135.717L96.5261 134.921ZM104.334 131.081L104.626 132.037L104.638 132.034L104.65 132.03L104.334 131.081ZM113.55 129.161L113.633 130.158L113.647 130.157L113.66 130.155L113.55 129.161ZM145.166 128.649V129.649H146.186L146.166 128.63L145.166 128.649ZM112.398 123.145V124.145H113.094L113.336 123.492L112.398 123.145ZM90.6381 123.145L89.6786 122.863L89.302 124.145H90.6381V123.145ZM139.406 156.041L139.921 156.899L139.927 156.894L139.934 156.89L139.406 156.041ZM145.166 141.577H146.166V140.577H145.166V141.577ZM116.11 143.625L116.569 144.513L116.581 144.507L116.593 144.501L116.11 143.625ZM129.294 101.489C141.567 101.489 150.661 103.821 156.73 108.332L157.923 106.727C151.362 101.85 141.768 99.4891 129.294 99.4891V101.489ZM156.735 108.336C162.774 112.765 165.926 120.536 165.926 131.977H167.926C167.926 120.208 164.678 111.68 157.917 106.723L156.735 108.336ZM165.926 131.977V171.529H167.926V131.977H165.926ZM166.926 170.529H147.982V172.529H166.926V170.529ZM148.969 171.37L147.817 164.202L145.843 164.52L146.995 171.688L148.969 171.37ZM146.085 163.694C143.322 166.782 139.558 169.129 134.743 170.707L135.365 172.607C140.449 170.942 144.536 168.425 147.575 165.028L146.085 163.694ZM134.723 170.714C129.97 172.381 124.962 173.217 119.694 173.217V175.217C125.178 175.217 130.41 174.346 135.385 172.601L134.723 170.714ZM119.694 173.217C110.431 173.217 103.28 171.321 98.1313 167.643L96.9688 169.271C102.572 173.273 110.184 175.217 119.694 175.217V173.217ZM98.1375 167.648C93.1656 164.039 90.6141 158.448 90.6141 150.665H88.6141C88.6141 158.925 91.3531 165.195 96.9627 169.266L98.1375 167.648ZM90.6141 150.665C90.6141 147.199 91.2328 144.24 92.4342 141.757L90.6339 140.886C89.2754 143.693 88.6141 146.963 88.6141 150.665H90.6141ZM92.4395 141.746C93.6624 139.137 95.2306 137.143 97.1261 135.721L95.9261 134.121C93.7255 135.772 91.9657 138.044 90.6286 140.897L92.4395 141.746ZM97.1311 135.717C99.1538 134.18 101.645 132.948 104.626 132.037L104.042 130.125C100.879 131.091 98.1649 132.42 95.921 134.125L97.1311 135.717ZM104.65 132.03C107.651 131.03 110.644 130.407 113.633 130.158L113.467 128.165C110.312 128.428 107.162 129.085 104.018 130.132L104.65 132.03ZM113.66 130.155C116.688 129.819 120.107 129.649 123.918 129.649V127.649C120.05 127.649 116.556 127.821 113.44 128.167L113.66 130.155ZM123.918 129.649H145.166V127.649H123.918V129.649ZM146.166 128.63C146.077 124.087 144.685 120.591 141.806 118.384L140.59 119.971C142.831 121.689 144.085 124.507 144.166 128.669L146.166 128.63ZM141.806 118.384C138.987 116.222 134.709 115.233 129.166 115.233V117.233C134.546 117.233 138.289 118.207 140.59 119.971L141.806 118.384ZM129.166 115.233C124.365 115.233 120.453 115.815 117.489 117.037C114.5 118.269 112.432 120.174 111.46 122.798L113.336 123.492C114.071 121.509 115.651 119.958 118.251 118.886C120.876 117.804 124.495 117.233 129.166 117.233V115.233ZM112.398 122.145H90.6381V124.145H112.398V122.145ZM91.5975 123.427C93.7487 116.105 97.9255 110.656 104.136 107.016C110.373 103.36 118.733 101.489 129.294 101.489V99.4891C118.522 99.4891 109.772 101.394 103.124 105.29C96.4493 109.203 91.9648 115.081 89.6786 122.863L91.5975 123.427ZM125.454 160.497C131.057 160.497 135.894 159.314 139.921 156.899L138.892 155.184C135.238 157.376 130.774 158.497 125.454 158.497V160.497ZM139.934 156.89C144.122 154.285 146.166 150.088 146.166 144.521H144.166C144.166 149.535 142.37 153.019 138.878 155.192L139.934 156.89ZM146.166 144.521V141.577H144.166V144.521H146.166ZM145.166 140.577H128.782V142.577H145.166V140.577ZM128.782 140.577C122.789 140.577 118.34 141.252 115.627 142.75L116.593 144.501C118.829 143.267 122.829 142.577 128.782 142.577V140.577ZM115.651 142.737C114.251 143.461 113.171 144.482 112.449 145.801C111.731 147.112 111.398 148.663 111.398 150.409H113.398C113.398 148.913 113.683 147.711 114.203 146.761C114.719 145.819 115.494 145.07 116.569 144.513L115.651 142.737ZM111.398 150.409C111.398 153.712 112.605 156.315 115.091 158.046C117.511 159.731 121.017 160.497 125.454 160.497V158.497C121.187 158.497 118.165 157.749 116.233 156.404C114.367 155.106 113.398 153.165 113.398 150.409H111.398ZM179.387 189.961L178.387 189.972L178.397 190.961H179.387V189.961ZM179.003 153.225V152.225H177.993L178.003 153.236L179.003 153.225ZM188.347 151.433L187.827 150.579L187.819 150.584L187.81 150.589L188.347 151.433ZM192.699 146.057L193.63 146.423L192.699 146.057ZM194.747 139.401L195.726 139.605L194.747 139.401ZM195.899 131.593L196.893 131.701L196.894 131.693L195.899 131.593ZM196.795 103.177V102.177H195.795V103.177H196.795ZM265.147 103.177H266.147V102.177H265.147V103.177ZM265.147 153.225H264.147V154.225H265.147V153.225ZM276.667 153.225L277.663 153.32L277.767 152.225H276.667V153.225ZM276.027 166.153L277.027 166.175L277.027 166.17L276.027 166.153ZM275.515 189.961V190.961H276.494L276.515 189.983L275.515 189.961ZM255.931 189.961H254.931V190.961H255.931V189.961ZM255.931 171.529H256.931V170.529H255.931V171.529ZM198.971 171.529V170.529H197.971V171.529H198.971ZM198.971 189.961V190.961H199.971V189.961H198.971ZM208.955 153.225L208.223 152.543L206.656 154.225H208.955V153.225ZM242.107 153.225V154.225H243.107V153.225H242.107ZM242.107 120.969H243.107V119.969H242.107V120.969ZM216.379 120.969V119.969H215.379V120.969H216.379ZM216.123 125.961L217.122 126.017L217.122 126.015L216.123 125.961ZM215.611 133.001L214.617 132.896L214.616 132.905L215.611 133.001ZM180.387 189.951L180.003 153.215L178.003 153.236L178.387 189.972L180.387 189.951ZM179.003 154.225H181.435V152.225H179.003V154.225ZM181.435 154.225C184.313 154.225 186.813 153.595 188.884 152.277L187.81 150.589C186.126 151.661 184.019 152.225 181.435 152.225V154.225ZM188.867 152.287C191.038 150.966 192.621 148.99 193.63 146.423L191.768 145.691C190.9 147.903 189.581 149.511 187.827 150.579L188.867 152.287ZM193.63 146.423C194.585 143.992 195.286 141.719 195.726 139.605L193.768 139.197C193.355 141.179 192.691 143.343 191.768 145.691L193.63 146.423ZM195.726 139.605C196.162 137.513 196.55 134.876 196.893 131.701L194.905 131.486C194.565 134.625 194.186 137.193 193.768 139.197L195.726 139.605ZM196.894 131.693C197.497 125.666 197.795 116.152 197.795 103.177H195.795C195.795 116.143 195.496 125.573 194.904 131.494L196.894 131.693ZM196.795 104.177H265.147V102.177H196.795V104.177ZM264.147 103.177V153.225H266.147V103.177H264.147ZM265.147 154.225H276.667V152.225H265.147V154.225ZM275.672 153.13C275.327 156.748 275.113 161.085 275.027 166.136L277.027 166.17C277.112 161.152 277.324 156.87 277.663 153.32L275.672 153.13ZM275.027 166.132L274.515 189.94L276.515 189.983L277.027 166.175L275.027 166.132ZM275.515 188.961H255.931V190.961H275.515V188.961ZM256.931 189.961V171.529H254.931V189.961H256.931ZM255.931 170.529H198.971V172.529H255.931V170.529ZM197.971 171.529V189.961H199.971V171.529H197.971ZM198.971 188.961H179.387V190.961H198.971V188.961ZM208.955 154.225H242.107V152.225H208.955V154.225ZM243.107 153.225V120.969H241.107V153.225H243.107ZM242.107 119.969H216.379V121.969H242.107V119.969ZM215.379 120.969C215.379 120.967 215.379 120.992 215.376 121.064C215.373 121.128 215.369 121.217 215.364 121.331C215.354 121.558 215.338 121.878 215.316 122.294C215.274 123.125 215.21 124.329 215.125 125.907L217.122 126.015C217.291 122.887 217.379 121.176 217.379 120.969H215.379ZM215.125 125.906C214.954 128.973 214.785 131.3 214.617 132.896L216.606 133.106C216.779 131.46 216.951 129.093 217.122 126.017L215.125 125.906ZM214.616 132.905C213.682 142.584 211.487 149.041 208.223 152.543L209.687 153.907C213.42 149.9 215.663 142.874 216.606 133.097L214.616 132.905ZM353.576 107.529L352.98 108.332L352.985 108.336L353.576 107.529ZM363.176 171.529V172.529H364.176V171.529H363.176ZM344.232 171.529L343.245 171.688L343.38 172.529H344.232V171.529ZM343.08 164.361L344.067 164.202L343.734 162.13L342.335 163.694L343.08 164.361ZM331.304 171.657L330.993 170.707L330.983 170.71L330.973 170.714L331.304 171.657ZM293.8 168.457L293.213 169.266L293.219 169.271L293.8 168.457ZM287.784 141.321L288.684 141.757L288.69 141.746L287.784 141.321ZM292.776 134.921L293.376 135.721L293.381 135.717L292.776 134.921ZM300.584 131.081L300.876 132.037L300.888 132.034L300.9 132.03L300.584 131.081ZM309.8 129.161L309.883 130.158L309.897 130.157L309.91 130.155L309.8 129.161ZM341.416 128.649V129.649H342.436L342.416 128.63L341.416 128.649ZM308.648 123.145V124.145H309.344L309.586 123.492L308.648 123.145ZM286.888 123.145L285.929 122.863L285.552 124.145H286.888V123.145ZM335.656 156.041L336.171 156.899L336.177 156.894L336.184 156.89L335.656 156.041ZM341.416 141.577H342.416V140.577H341.416V141.577ZM312.36 143.625L312.819 144.513L312.831 144.507L312.843 144.501L312.36 143.625ZM325.544 101.489C337.817 101.489 346.911 103.821 352.98 108.332L354.173 106.727C347.612 101.85 338.018 99.4891 325.544 99.4891V101.489ZM352.985 108.336C359.024 112.765 362.176 120.536 362.176 131.977H364.176C364.176 120.208 360.928 111.68 354.167 106.723L352.985 108.336ZM362.176 131.977V171.529H364.176V131.977H362.176ZM363.176 170.529H344.232V172.529H363.176V170.529ZM345.219 171.37L344.067 164.202L342.093 164.52L343.245 171.688L345.219 171.37ZM342.335 163.694C339.572 166.782 335.808 169.129 330.993 170.707L331.615 172.607C336.699 170.942 340.786 168.425 343.825 165.028L342.335 163.694ZM330.973 170.714C326.22 172.381 321.212 173.217 315.944 173.217V175.217C321.428 175.217 326.66 174.346 331.635 172.601L330.973 170.714ZM315.944 173.217C306.681 173.217 299.53 171.321 294.381 167.643L293.219 169.271C298.822 173.273 306.434 175.217 315.944 175.217V173.217ZM294.387 167.648C289.416 164.039 286.864 158.448 286.864 150.665H284.864C284.864 158.925 287.603 165.195 293.213 169.266L294.387 167.648ZM286.864 150.665C286.864 147.199 287.483 144.24 288.684 141.757L286.884 140.886C285.525 143.693 284.864 146.963 284.864 150.665H286.864ZM288.69 141.746C289.912 139.137 291.481 137.143 293.376 135.721L292.176 134.121C289.976 135.772 288.216 138.044 286.879 140.897L288.69 141.746ZM293.381 135.717C295.404 134.18 297.895 132.948 300.876 132.037L300.292 130.125C297.129 131.091 294.415 132.42 292.171 134.125L293.381 135.717ZM300.9 132.03C303.901 131.03 306.894 130.407 309.883 130.158L309.717 128.165C306.562 128.428 303.412 129.085 300.268 130.132L300.9 132.03ZM309.91 130.155C312.938 129.819 316.357 129.649 320.168 129.649V127.649C316.3 127.649 312.806 127.821 309.69 128.167L309.91 130.155ZM320.168 129.649H341.416V127.649H320.168V129.649ZM342.416 128.63C342.327 124.087 340.935 120.591 338.056 118.384L336.84 119.971C339.081 121.689 340.335 124.507 340.416 128.669L342.416 128.63ZM338.056 118.384C335.237 116.222 330.959 115.233 325.416 115.233V117.233C330.796 117.233 334.539 118.207 336.84 119.971L338.056 118.384ZM325.416 115.233C320.615 115.233 316.703 115.815 313.739 117.037C310.75 118.269 308.682 120.174 307.71 122.798L309.586 123.492C310.321 121.509 311.901 119.958 314.501 118.886C317.126 117.804 320.745 117.233 325.416 117.233V115.233ZM308.648 122.145H286.888V124.145H308.648V122.145ZM287.848 123.427C289.999 116.105 294.175 110.656 300.386 107.016C306.623 103.36 314.983 101.489 325.544 101.489V99.4891C314.772 99.4891 306.022 101.394 299.374 105.29C292.699 109.203 288.215 115.081 285.929 122.863L287.848 123.427ZM321.704 160.497C327.307 160.497 332.144 159.314 336.171 156.899L335.142 155.184C331.488 157.376 327.024 158.497 321.704 158.497V160.497ZM336.184 156.89C340.372 154.285 342.416 150.088 342.416 144.521H340.416C340.416 149.535 338.62 153.019 335.128 155.192L336.184 156.89ZM342.416 144.521V141.577H340.416V144.521H342.416ZM341.416 140.577H325.032V142.577H341.416V140.577ZM325.032 140.577C319.039 140.577 314.59 141.252 311.877 142.75L312.843 144.501C315.079 143.267 319.079 142.577 325.032 142.577V140.577ZM311.901 142.737C310.501 143.461 309.421 144.482 308.699 145.801C307.981 147.112 307.648 148.663 307.648 150.409H309.648C309.648 148.913 309.933 147.711 310.453 146.761C310.969 145.819 311.744 145.07 312.819 144.513L311.901 142.737ZM307.648 150.409C307.648 153.712 308.855 156.315 311.341 158.046C313.761 159.731 317.267 160.497 321.704 160.497V158.497C317.437 158.497 314.415 157.749 312.483 156.404C310.617 155.106 309.648 153.165 309.648 150.409H307.648ZM439.125 103.177V102.177H438.125V103.177H439.125ZM462.165 103.177H463.165V102.177H462.165V103.177ZM462.165 171.529V172.529H463.165V171.529H462.165ZM439.125 171.529H438.125V172.529H439.125V171.529ZM439.125 146.697H440.125V145.697H439.125V146.697ZM406.741 146.697V145.697H405.741V146.697H406.741ZM406.741 171.529V172.529H407.741V171.529H406.741ZM383.701 171.529H382.701V172.529H383.701V171.529ZM383.701 103.177V102.177H382.701V103.177H383.701ZM406.741 103.177H407.741V102.177H406.741V103.177ZM406.741 127.753H405.741V128.753H406.741V127.753ZM439.125 127.753V128.753H440.125V127.753H439.125ZM439.125 104.177H462.165V102.177H439.125V104.177ZM461.165 103.177V171.529H463.165V103.177H461.165ZM462.165 170.529H439.125V172.529H462.165V170.529ZM440.125 171.529V146.697H438.125V171.529H440.125ZM439.125 145.697H406.741V147.697H439.125V145.697ZM405.741 146.697V171.529H407.741V146.697H405.741ZM406.741 170.529H383.701V172.529H406.741V170.529ZM384.701 171.529V103.177H382.701V171.529H384.701ZM383.701 104.177H406.741V102.177H383.701V104.177ZM405.741 103.177V127.753H407.741V103.177H405.741ZM406.741 128.753H439.125V126.753H406.741V128.753ZM440.125 127.753V103.177H438.125V127.753H440.125ZM482.701 171.529H481.701V172.529H482.701V171.529ZM482.701 103.177V102.177H481.701V103.177H482.701ZM505.229 103.177H506.229V102.177H505.229V103.177ZM505.229 160.393H504.229V161.393H505.229V160.393ZM507.277 160.393V161.393H507.989L508.222 160.72L507.277 160.393ZM527.885 103.177V102.177H527.21L526.958 102.803L527.885 103.177ZM565.901 103.177H566.901V102.177H565.901V103.177ZM565.901 171.529V172.529H566.901V171.529H565.901ZM543.373 171.529H542.373V172.529H543.373V171.529ZM543.373 114.313H544.373V113.313H543.373V114.313ZM541.325 114.313V113.313H540.616L540.381 113.983L541.325 114.313ZM520.717 171.529V172.529H521.399L521.648 171.895L520.717 171.529ZM483.701 171.529V103.177H481.701V171.529H483.701ZM482.701 104.177H505.229V102.177H482.701V104.177ZM504.229 103.177V160.393H506.229V103.177H504.229ZM505.229 161.393H507.277V159.393H505.229V161.393ZM508.222 160.72C518.208 131.873 525.069 112.825 528.812 103.551L526.958 102.803C523.192 112.132 516.315 131.228 506.332 160.066L508.222 160.72ZM527.885 104.177H565.901V102.177H527.885V104.177ZM564.901 103.177V171.529H566.901V103.177H564.901ZM565.901 170.529H543.373V172.529H565.901V170.529ZM544.373 171.529V114.313H542.373V171.529H544.373ZM543.373 113.313H541.325V115.313H543.373V113.313ZM540.381 113.983C530.225 143 523.362 162.054 519.786 171.164L521.648 171.895C525.24 162.743 532.115 143.653 542.269 114.643L540.381 113.983ZM520.717 170.529H482.701V172.529H520.717V170.529ZM661.846 103.177H662.846V102.177H661.846V103.177ZM661.846 171.529V172.529H662.846V171.529H661.846ZM638.806 171.529H637.806V172.529H638.806V171.529ZM638.806 153.737H639.806V152.737H638.806V153.737ZM620.374 153.737V152.737H619.898L619.598 153.106L620.374 153.737ZM605.91 171.529V172.529H606.386L606.686 172.16L605.91 171.529ZM581.078 171.529L580.303 170.897L578.973 172.529H581.078V171.529ZM597.462 151.433L598.237 152.065L599.14 150.958L597.791 150.489L597.462 151.433ZM638.806 137.481V138.481H639.806V137.481H638.806ZM638.806 119.945H639.806V118.945H638.806V119.945ZM660.846 103.177V171.529H662.846V103.177H660.846ZM661.846 170.529H638.806V172.529H661.846V170.529ZM639.806 171.529V153.737H637.806V171.529H639.806ZM638.806 152.737H620.374V154.737H638.806V152.737ZM619.598 153.106L605.134 170.898L606.686 172.16L621.15 154.368L619.598 153.106ZM605.91 170.529H581.078V172.529H605.91V170.529ZM581.853 172.161L598.237 152.065L596.687 150.801L580.303 170.897L581.853 172.161ZM597.791 150.489C593.062 148.844 589.577 146.217 587.262 142.634C584.94 139.041 583.742 134.402 583.742 128.649H581.742C581.742 134.672 582.997 139.719 585.582 143.72C588.174 147.732 592.049 150.609 597.134 152.378L597.791 150.489ZM583.742 128.649C583.742 120.364 586.211 114.316 591 110.312C595.823 106.279 603.166 104.177 613.206 104.177V102.177C602.937 102.177 595.048 104.32 589.717 108.778C584.351 113.265 581.742 119.953 581.742 128.649H583.742ZM613.206 104.177H661.846V102.177H613.206V104.177ZM614.87 138.481H638.806V136.481H614.87V138.481ZM639.806 137.481V119.945H637.806V137.481H639.806ZM638.806 118.945H614.87V120.945H638.806V118.945ZM614.87 118.945C611.499 118.945 608.784 119.697 606.907 121.376C605.009 123.074 604.142 125.563 604.142 128.649H606.142C606.142 125.932 606.896 124.07 608.241 122.866C609.607 121.644 611.756 120.945 614.87 120.945V118.945ZM604.142 128.649C604.142 131.774 605.007 134.293 606.902 136.014C608.779 137.717 611.496 138.481 614.87 138.481V136.481C611.759 136.481 609.612 135.773 608.246 134.533C606.899 133.309 606.142 131.413 606.142 128.649H604.142Z" fill="white"/>
</svg>
