<svg width="652" height="198" viewBox="0 0 652 198" fill="none" xmlns="http://www.w3.org/2000/svg">
<path d="M76.4787 65.9993L77.1066 66.7776L77.1076 66.7768L76.4787 65.9993ZM11.3267 65.9993L10.6934 66.7733L10.703 66.781L11.3267 65.9993ZM11.3267 10.0633L11.9546 10.8416L11.9556 10.8408L11.3267 10.0633ZM76.4787 10.0633L75.8454 10.8373L75.855 10.845L76.4787 10.0633ZM27.8387 52.1753L27.1315 52.8825L27.1413 52.892L27.8387 52.1753ZM60.0947 52.1753L60.7921 52.8921L60.8018 52.8824L60.0947 52.1753ZM60.0947 23.8873L59.3875 24.5945L59.3973 24.604L60.0947 23.8873ZM27.8387 23.8873L28.5361 24.6041L28.5458 24.5944L27.8387 23.8873ZM75.8507 65.221C68.5858 71.0825 58.0069 74.0873 43.9667 74.0873V76.0873C58.257 76.0873 69.3529 73.0334 77.1066 66.7776L75.8507 65.221ZM43.9667 74.0873C29.9274 74.0873 19.3026 71.0829 11.9503 65.2176L10.703 66.781C18.54 73.033 29.6752 76.0873 43.9667 76.0873V74.0873ZM11.9599 65.2253C4.74729 59.3241 1.06265 50.3062 1.06265 37.9673H-0.937345C-0.937345 50.7164 2.88736 60.3865 10.6934 66.7733L11.9599 65.2253ZM1.06265 37.9673C1.06265 25.6276 4.74748 16.6564 11.9546 10.8416L10.6987 9.28503C2.88717 15.5875 -0.937345 25.219 -0.937345 37.9673H1.06265ZM11.9556 10.8408C19.3075 4.89315 29.9301 1.84731 43.9667 1.84731V-0.152695C29.6725 -0.152695 18.5351 2.94546 10.6977 9.28586L11.9556 10.8408ZM43.9667 1.84731C58.0042 1.84731 68.5809 4.89357 75.8454 10.8373L77.1119 9.28935C69.3577 2.94504 58.2597 -0.152695 43.9667 -0.152695V1.84731ZM75.855 10.845C83.1457 16.6612 86.8707 25.6315 86.8707 37.9673H88.8707C88.8707 25.2152 85.001 15.5828 77.1023 9.28158L75.855 10.845ZM86.8707 37.9673C86.8707 50.3024 83.1459 59.3194 75.8497 65.2219L77.1076 66.7768C85.0008 60.3913 88.8707 50.7202 88.8707 37.9673H86.8707ZM27.1413 52.892C30.5814 56.2391 36.2865 57.7833 43.9667 57.7833V55.7833C36.4575 55.7833 31.4106 54.2555 28.536 51.4586L27.1413 52.892ZM43.9667 57.7833C51.6468 57.7833 57.3519 56.2391 60.792 52.892L59.3973 51.4586C56.5227 54.2555 51.4758 55.7833 43.9667 55.7833V57.7833ZM60.8018 52.8824C64.2128 49.4714 65.8307 44.4361 65.8307 37.9673H63.8307C63.8307 44.1278 62.2912 48.5645 59.3876 51.4682L60.8018 52.8824ZM65.8307 37.9673C65.8307 31.5009 64.2137 26.4998 60.792 23.1706L59.3973 24.604C62.2903 27.4188 63.8307 31.8044 63.8307 37.9673H65.8307ZM60.8018 23.1802C57.3619 19.7404 51.6523 18.1513 43.9667 18.1513V20.1513C51.4703 20.1513 56.5127 21.7196 59.3876 24.5944L60.8018 23.1802ZM43.9667 18.1513C36.281 18.1513 30.5714 19.7404 27.1315 23.1802L28.5458 24.5944C31.4206 21.7196 36.463 20.1513 43.9667 20.1513V18.1513ZM27.1413 23.1706C23.7196 26.4998 22.1027 31.5009 22.1027 37.9673H24.1027C24.1027 31.8044 25.6431 27.4188 28.536 24.604L27.1413 23.1706ZM22.1027 37.9673C22.1027 44.4361 23.7205 49.4714 27.1315 52.8824L28.5458 51.4682C25.6421 48.5645 24.1027 44.1278 24.1027 37.9673H22.1027ZM4.79866 172.143H3.79866V173.143H4.79866V172.143ZM4.79866 103.791V102.791H3.79866V103.791H4.79866ZM82.7507 103.791H83.7507V102.791H82.7507V103.791ZM82.7507 172.143V173.143H83.7507V172.143H82.7507ZM59.7107 172.143H58.7107V173.143H59.7107V172.143ZM59.7107 122.735H60.7107V121.735H59.7107V122.735ZM27.8387 122.735V121.735H26.8387V122.735H27.8387ZM27.8387 172.143V173.143H28.8387V172.143H27.8387ZM5.79866 172.143V103.791H3.79866V172.143H5.79866ZM4.79866 104.791H82.7507V102.791H4.79866V104.791ZM81.7507 103.791V172.143H83.7507V103.791H81.7507ZM82.7507 171.143H59.7107V173.143H82.7507V171.143ZM60.7107 172.143V122.735H58.7107V172.143H60.7107ZM59.7107 121.735H27.8387V123.735H59.7107V121.735ZM26.8387 122.735V172.143H28.8387V122.735H26.8387ZM27.8387 171.143H4.79866V173.143H27.8387V171.143ZM179.078 110.831L178.343 111.51L178.347 111.514L179.078 110.831ZM179.078 165.103L178.347 164.42L179.078 165.103ZM126.214 168.943L126.782 168.121L125.214 167.037V168.943H126.214ZM126.214 197.615V198.615H127.214V197.615H126.214ZM103.174 197.615H102.174V198.615H103.174V197.615ZM103.174 103.791V102.791H102.174V103.791H103.174ZM122.758 103.791L123.757 103.759L123.725 102.791H122.758V103.791ZM123.014 111.599L122.014 111.632L122.093 114.038L123.742 112.284L123.014 111.599ZM129.542 124.143L128.861 123.41L128.852 123.419L129.542 124.143ZM129.542 151.791L128.852 152.516L128.861 152.524L129.542 151.791ZM151.046 101.847C163.421 101.847 172.452 105.128 178.343 111.51L179.812 110.153C173.415 103.223 163.758 99.8473 151.046 99.8473V101.847ZM178.347 111.514C184.273 117.852 187.294 126.627 187.294 137.967H189.294C189.294 126.268 186.17 116.952 179.808 110.148L178.347 111.514ZM187.294 137.967C187.294 149.308 184.273 158.083 178.347 164.42L179.808 165.786C186.17 158.983 189.294 149.667 189.294 137.967H187.294ZM178.347 164.42C172.457 170.719 163.425 173.959 151.046 173.959V175.959C163.754 175.959 173.41 172.629 179.808 165.786L178.347 164.42ZM151.046 173.959C140.397 173.959 132.351 171.97 126.782 168.121L125.645 169.766C131.681 173.938 140.19 175.959 151.046 175.959V173.959ZM125.214 168.943V197.615H127.214V168.943H125.214ZM126.214 196.615H103.174V198.615H126.214V196.615ZM104.174 197.615V103.791H102.174V197.615H104.174ZM103.174 104.791H122.758V102.791H103.174V104.791ZM121.758 103.824L122.014 111.632L124.013 111.567L123.757 103.759L121.758 103.824ZM123.742 112.284C130.255 105.359 139.311 101.847 151.046 101.847V99.8473C138.887 99.8473 129.255 103.503 122.285 110.914L123.742 112.284ZM145.03 157.783C151.908 157.783 157.253 156.185 160.879 152.811C164.518 149.425 166.254 144.413 166.254 137.967H164.254C164.254 144.066 162.618 148.461 159.516 151.347C156.401 154.246 151.634 155.783 145.03 155.783V157.783ZM166.254 137.967C166.254 131.522 164.518 126.509 160.879 123.123C157.253 119.75 151.908 118.151 145.03 118.151V120.151C151.634 120.151 156.401 121.689 159.516 124.587C162.618 127.473 164.254 131.869 164.254 137.967H166.254ZM145.03 118.151C138.132 118.151 132.69 119.855 128.861 123.411L130.222 124.876C133.561 121.776 138.444 120.151 145.03 120.151V118.151ZM128.852 123.419C125.113 126.976 123.294 131.87 123.294 137.967H125.294C125.294 132.289 126.973 127.967 130.231 124.868L128.852 123.419ZM123.294 137.967C123.294 144.065 125.113 148.959 128.852 152.516L130.231 151.067C126.973 147.968 125.294 143.646 125.294 137.967H123.294ZM128.861 152.524C132.69 156.08 138.132 157.783 145.03 157.783V155.783C138.444 155.783 133.561 154.159 130.222 151.059L128.861 152.524ZM275.729 165.999L276.357 166.778L276.358 166.777L275.729 165.999ZM210.577 165.999L209.943 166.773L209.953 166.781L210.577 165.999ZM210.577 110.063L211.205 110.842L211.206 110.841L210.577 110.063ZM275.729 110.063L275.095 110.837L275.105 110.845L275.729 110.063ZM227.089 152.175L226.381 152.882L226.391 152.892L227.089 152.175ZM259.345 152.175L260.042 152.892L260.052 152.882L259.345 152.175ZM259.345 123.887L258.637 124.594L258.647 124.604L259.345 123.887ZM227.089 123.887L227.786 124.604L227.796 124.594L227.089 123.887ZM275.101 165.221C267.836 171.083 257.257 174.087 243.217 174.087V176.087C257.507 176.087 268.603 173.033 276.357 166.778L275.101 165.221ZM243.217 174.087C229.177 174.087 218.553 171.083 211.2 165.218L209.953 166.781C217.79 173.033 228.925 176.087 243.217 176.087V174.087ZM211.21 165.225C203.997 159.324 200.313 150.306 200.313 137.967H198.313C198.313 150.716 202.137 160.386 209.943 166.773L211.21 165.225ZM200.313 137.967C200.313 125.628 203.997 116.656 211.205 110.842L209.949 109.285C202.137 115.588 198.313 125.219 198.313 137.967H200.313ZM211.206 110.841C218.557 104.893 229.18 101.847 243.217 101.847V99.8473C228.923 99.8473 217.785 102.945 209.948 109.286L211.206 110.841ZM243.217 101.847C257.254 101.847 267.831 104.894 275.095 110.837L276.362 109.289C268.608 102.945 257.51 99.8473 243.217 99.8473V101.847ZM275.105 110.845C282.396 116.661 286.121 125.631 286.121 137.967H288.121C288.121 125.215 284.251 115.583 276.352 109.282L275.105 110.845ZM286.121 137.967C286.121 150.302 282.396 159.319 275.1 165.222L276.358 166.777C284.251 160.391 288.121 150.72 288.121 137.967H286.121ZM226.391 152.892C229.831 156.239 235.536 157.783 243.217 157.783V155.783C235.708 155.783 230.661 154.255 227.786 151.459L226.391 152.892ZM243.217 157.783C250.897 157.783 256.602 156.239 260.042 152.892L258.647 151.459C255.773 154.255 250.726 155.783 243.217 155.783V157.783ZM260.052 152.882C263.463 149.471 265.081 144.436 265.081 137.967H263.081C263.081 144.128 261.541 148.565 258.638 151.468L260.052 152.882ZM265.081 137.967C265.081 131.501 263.464 126.5 260.042 123.171L258.647 124.604C261.54 127.419 263.081 131.804 263.081 137.967H265.081ZM260.052 123.18C256.612 119.74 250.902 118.151 243.217 118.151V120.151C250.72 120.151 255.763 121.72 258.638 124.594L260.052 123.18ZM243.217 118.151C235.531 118.151 229.821 119.74 226.382 123.18L227.796 124.594C230.671 121.72 235.713 120.151 243.217 120.151V118.151ZM226.391 123.171C222.97 126.5 221.353 131.501 221.353 137.967H223.353C223.353 131.804 224.893 127.419 227.786 124.604L226.391 123.171ZM221.353 137.967C221.353 144.436 222.971 149.471 226.382 152.882L227.796 151.468C224.892 148.565 223.353 144.128 223.353 137.967H221.353ZM374.476 111.599L373.773 112.311L373.777 112.315L374.476 111.599ZM384.844 143.343V144.343H385.832L385.844 143.355L384.844 143.343ZM320.844 143.343V142.343H319.792L319.845 143.394L320.844 143.343ZM326.476 154.607L325.898 155.424L325.909 155.432L325.921 155.439L326.476 154.607ZM361.164 152.303V151.303H360.533L360.262 151.872L361.164 152.303ZM383.948 152.303L384.931 152.488L385.153 151.303H383.948V152.303ZM324.428 172.911L324.67 171.941L324.663 171.939L324.655 171.937L324.428 172.911ZM310.604 167.023L310.041 167.85L310.049 167.855L310.604 167.023ZM301.388 155.631L300.469 156.027L300.472 156.033L301.388 155.631ZM309.324 110.575L308.676 109.814L309.324 110.575ZM321.228 130.031L320.237 129.898L320.084 131.031H321.228V130.031ZM361.676 130.031V131.031H362.814L362.667 129.902L361.676 130.031ZM327.116 120.303L326.601 119.446L326.592 119.452L327.116 120.303ZM341.708 102.103C356.333 102.103 366.951 105.571 373.773 112.311L375.178 110.888C367.835 103.633 356.608 100.103 341.708 100.103V102.103ZM373.777 112.315C380.591 118.965 384.013 129.232 383.844 143.331L385.844 143.355C386.016 128.953 382.525 118.058 375.174 110.884L373.777 112.315ZM384.844 142.343H320.844V144.343H384.844V142.343ZM319.845 143.394C320.113 148.674 322.103 152.74 325.898 155.424L327.053 153.791C323.851 151.526 322.086 148.081 321.842 143.293L319.845 143.394ZM325.921 155.439C329.748 157.991 335.447 159.191 342.86 159.191V157.191C335.595 157.191 330.371 156.002 327.03 153.775L325.921 155.439ZM342.86 159.191C348.071 159.191 352.295 158.698 355.486 157.671C358.674 156.646 360.962 155.043 362.066 152.735L360.262 151.872C359.488 153.489 357.787 154.83 354.873 155.767C351.963 156.703 347.974 157.191 342.86 157.191V159.191ZM361.164 153.303H383.948V151.303H361.164V153.303ZM382.965 152.119C381.753 158.583 377.598 163.821 370.285 167.809L371.243 169.565C378.948 165.362 383.583 159.677 384.931 152.488L382.965 152.119ZM370.285 167.809C362.966 171.801 353.546 173.831 341.964 173.831V175.831C353.763 175.831 363.542 173.765 371.243 169.565L370.285 167.809ZM341.964 173.831C335.456 173.831 329.694 173.197 324.67 171.941L324.185 173.881C329.401 175.185 335.33 175.831 341.964 175.831V173.831ZM324.655 171.937C319.644 170.768 315.148 168.851 311.158 166.191L310.049 167.855C314.251 170.657 318.972 172.665 324.2 173.885L324.655 171.937ZM311.166 166.197C307.326 163.582 304.369 159.939 302.303 155.23L300.472 156.033C302.673 161.052 305.86 165.004 310.041 167.85L311.166 166.197ZM302.306 155.235C300.239 150.44 299.188 144.693 299.188 137.967H297.188C297.188 144.895 298.27 150.924 300.469 156.027L302.306 155.235ZM299.188 137.967C299.188 126.242 302.821 117.419 309.972 111.337L308.676 109.814C300.979 116.361 297.188 125.8 297.188 137.967H299.188ZM309.972 111.337C317.148 105.233 327.674 102.103 341.708 102.103V100.103C327.41 100.103 316.347 103.288 308.676 109.814L309.972 111.337ZM321.228 131.031H361.676V129.031H321.228V131.031ZM362.667 129.902C362.078 125.372 359.992 121.897 356.391 119.589C352.837 117.311 347.904 116.231 341.708 116.231V118.231C347.714 118.231 352.21 119.285 355.312 121.273C358.368 123.232 360.164 126.157 360.684 130.16L362.667 129.902ZM341.708 116.231C335.308 116.231 330.236 117.265 326.601 119.446L327.63 121.161C330.822 119.246 335.478 118.231 341.708 118.231V116.231ZM326.592 119.452C322.969 121.681 320.867 125.212 320.237 129.898L322.219 130.165C322.783 125.976 324.606 123.022 327.64 121.155L326.592 119.452ZM445.364 136.559L444.669 135.84L443.949 136.535L444.645 137.255L445.364 136.559ZM479.796 172.143V173.143H482.155L480.514 171.448L479.796 172.143ZM450.356 172.143L449.63 172.832L449.926 173.143H450.356V172.143ZM426.292 146.799L427.017 146.111L426.721 145.799H426.292V146.799ZM422.964 146.799V145.799H421.964V146.799H422.964ZM422.964 172.143V173.143H423.964V172.143H422.964ZM399.924 172.143H398.924V173.143H399.924V172.143ZM399.924 103.791V102.791H398.924V103.791H399.924ZM422.964 103.791H423.964V102.791H422.964V103.791ZM422.964 130.159H421.964V131.159H422.964V130.159ZM424.756 130.159V131.159H425.168L425.461 130.868L424.756 130.159ZM451.252 103.791V102.791H450.839L450.546 103.082L451.252 103.791ZM479.284 103.791L479.978 104.511L481.758 102.791H479.284V103.791ZM444.645 137.255L479.077 172.839L480.514 171.448L446.082 135.864L444.645 137.255ZM479.796 171.143H450.356V173.143H479.796V171.143ZM451.081 171.455L427.017 146.111L425.566 147.488L449.63 172.832L451.081 171.455ZM426.292 145.799H422.964V147.799H426.292V145.799ZM421.964 146.799V172.143H423.964V146.799H421.964ZM422.964 171.143H399.924V173.143H422.964V171.143ZM400.924 172.143V103.791H398.924V172.143H400.924ZM399.924 104.791H422.964V102.791H399.924V104.791ZM421.964 103.791V130.159H423.964V103.791H421.964ZM422.964 131.159H424.756V129.159H422.964V131.159ZM425.461 130.868L451.957 104.5L450.546 103.082L424.05 129.45L425.461 130.868ZM451.252 104.791H479.284V102.791H451.252V104.791ZM478.589 103.072L444.669 135.84L446.058 137.279L479.978 104.511L478.589 103.072ZM480.875 122.735H479.875V123.735H480.875V122.735ZM480.875 103.791V102.791H479.875V103.791H480.875ZM556.523 103.791H557.523V102.791H556.523V103.791ZM556.523 122.735V123.735H557.523V122.735H556.523ZM530.283 122.735V121.735H529.283V122.735H530.283ZM530.283 172.143V173.143H531.283V172.143H530.283ZM507.115 172.143H506.115V173.143H507.115V172.143ZM507.115 122.735H508.115V121.735H507.115V122.735ZM481.875 122.735V103.791H479.875V122.735H481.875ZM480.875 104.791H556.523V102.791H480.875V104.791ZM555.523 103.791V122.735H557.523V103.791H555.523ZM556.523 121.735H530.283V123.735H556.523V121.735ZM529.283 122.735V172.143H531.283V122.735H529.283ZM530.283 171.143H507.115V173.143H530.283V171.143ZM508.115 172.143V122.735H506.115V172.143H508.115ZM507.115 121.735H480.875V123.735H507.115V121.735ZM640.476 111.599L639.773 112.311L639.777 112.315L640.476 111.599ZM650.844 143.343V144.343H651.832L651.844 143.355L650.844 143.343ZM586.844 143.343V142.343H585.792L585.845 143.394L586.844 143.343ZM592.476 154.607L591.898 155.424L591.909 155.432L591.921 155.439L592.476 154.607ZM627.164 152.303V151.303H626.533L626.262 151.872L627.164 152.303ZM649.948 152.303L650.931 152.488L651.153 151.303H649.948V152.303ZM590.428 172.911L590.67 171.941L590.663 171.939L590.655 171.937L590.428 172.911ZM576.604 167.023L576.041 167.85L576.049 167.855L576.604 167.023ZM567.388 155.631L566.469 156.027L566.472 156.033L567.388 155.631ZM575.324 110.575L574.676 109.814L575.324 110.575ZM587.228 130.031L586.237 129.898L586.084 131.031H587.228V130.031ZM627.676 130.031V131.031H628.814L628.667 129.902L627.676 130.031ZM593.116 120.303L592.601 119.446L592.592 119.452L593.116 120.303ZM607.708 102.103C622.333 102.103 632.951 105.571 639.773 112.311L641.178 110.888C633.835 103.633 622.608 100.103 607.708 100.103V102.103ZM639.777 112.315C646.591 118.965 650.013 129.232 649.844 143.331L651.844 143.355C652.016 128.953 648.525 118.058 641.174 110.884L639.777 112.315ZM650.844 142.343H586.844V144.343H650.844V142.343ZM585.845 143.394C586.113 148.674 588.103 152.74 591.898 155.424L593.053 153.791C589.851 151.526 588.086 148.081 587.842 143.293L585.845 143.394ZM591.921 155.439C595.748 157.991 601.447 159.191 608.86 159.191V157.191C601.595 157.191 596.371 156.002 593.03 153.775L591.921 155.439ZM608.86 159.191C614.071 159.191 618.295 158.698 621.486 157.671C624.674 156.646 626.962 155.043 628.066 152.735L626.262 151.872C625.488 153.489 623.787 154.83 620.873 155.767C617.963 156.703 613.974 157.191 608.86 157.191V159.191ZM627.164 153.303H649.948V151.303H627.164V153.303ZM648.965 152.119C647.753 158.583 643.598 163.821 636.285 167.809L637.242 169.565C644.948 165.362 649.583 159.677 650.931 152.488L648.965 152.119ZM636.285 167.809C628.966 171.801 619.546 173.831 607.964 173.831V175.831C619.763 175.831 629.542 173.765 637.242 169.565L636.285 167.809ZM607.964 173.831C601.456 173.831 595.694 173.197 590.67 171.941L590.185 173.881C595.401 175.185 601.33 175.831 607.964 175.831V173.831ZM590.655 171.937C585.644 170.768 581.148 168.851 577.158 166.191L576.049 167.855C580.251 170.657 584.972 172.665 590.2 173.885L590.655 171.937ZM577.166 166.197C573.326 163.582 570.369 159.939 568.303 155.23L566.472 156.033C568.673 161.052 571.86 165.004 576.041 167.85L577.166 166.197ZM568.306 155.235C566.239 150.44 565.188 144.693 565.188 137.967H563.188C563.188 144.895 564.27 150.924 566.469 156.027L568.306 155.235ZM565.188 137.967C565.188 126.242 568.821 117.419 575.972 111.337L574.676 109.814C566.979 116.361 563.188 125.8 563.188 137.967H565.188ZM575.972 111.337C583.148 105.233 593.674 102.103 607.708 102.103V100.103C593.41 100.103 582.347 103.288 574.676 109.814L575.972 111.337ZM587.228 131.031H627.676V129.031H587.228V131.031ZM628.667 129.902C628.078 125.372 625.992 121.897 622.391 119.589C618.837 117.311 613.904 116.231 607.708 116.231V118.231C613.714 118.231 618.21 119.285 621.312 121.273C624.368 123.232 626.164 126.157 626.684 130.16L628.667 129.902ZM607.708 116.231C601.308 116.231 596.236 117.265 592.601 119.446L593.63 121.161C596.822 119.246 601.478 118.231 607.708 118.231V116.231ZM592.592 119.452C588.969 121.681 586.867 125.212 586.237 129.898L588.219 130.165C588.783 125.976 590.606 123.022 593.64 121.155L592.592 119.452Z" fill="white"/>
</svg>
